<?xml version="1.0" encoding="UTF-8"?>
<svg id="_레이어_1" data-name="레이어 1" xmlns="http://www.w3.org/2000/svg" viewBox="0 0 47 45">
  <defs>
    <style>
      .cls-1 {
        fill: #fee328;
      }

      .cls-2 {
        fill: #fdfde3;
      }

      .cls-3 {
        fill: #febb49;
      }

      .cls-4 {
        fill: #e91e01;
      }

      .cls-5 {
        fill: #feea66;
      }

      .cls-6 {
        fill: #f79b97;
      }

      .cls-7 {
        fill: #e20;
      }

      .cls-8 {
        fill: #fe9e42;
      }

      .cls-9 {
        fill: #fe643d;
      }

      .cls-10 {
        fill: #f59606;
      }

      .cls-11 {
        fill: #f05603;
      }

      .cls-12 {
        fill: #ed4e03;
      }

      .cls-13 {
        fill: #feba44;
      }

      .cls-14 {
        fill: #fe6646;
      }

      .cls-15 {
        fill: #fe6d3a;
      }

      .cls-16 {
        fill: #eb0c05;
      }

      .cls-17 {
        fill: #febd25;
      }

      .cls-18 {
        fill: #fe622e;
      }

      .cls-19 {
        fill: #eb1c12;
      }

      .cls-20 {
        fill: #fe772c;
      }

      .cls-21 {
        fill: #fe9d45;
      }

      .cls-22 {
        fill: #fcf389;
      }

      .cls-23 {
        fill: #fe6142;
      }

      .cls-24 {
        fill: #f73200;
      }

      .cls-25 {
        fill: #ed3103;
      }

      .cls-26 {
        fill: #feb247;
      }

      .cls-27 {
        fill: #f97901;
      }

      .cls-28 {
        fill: #fe953a;
      }

      .cls-29 {
        fill: #f42d0f;
      }

      .cls-30 {
        fill: #fe9c47;
      }

      .cls-31 {
        fill: #ed4504;
      }

      .cls-32 {
        fill: #fede1b;
      }

      .cls-33 {
        fill: #f02101;
      }

      .cls-34 {
        fill: #fea42a;
      }

      .cls-35 {
        fill: #fed24c;
      }

      .cls-36 {
        fill: #fba404;
      }

      .cls-37 {
        fill: #f30800;
      }

      .cls-38 {
        fill: #fea347;
      }

      .cls-39 {
        fill: #fe943f;
      }

      .cls-40 {
        fill: #fe9a39;
      }

      .cls-41 {
        fill: #feec6f;
      }

      .cls-42 {
        fill: #fe6b27;
      }

      .cls-43 {
        fill: #fe930f;
      }

      .cls-44 {
        fill: #fe5228;
      }

      .cls-45 {
        fill: #feac32;
      }

      .cls-46 {
        fill: #ea2402;
      }

      .cls-47 {
        fill: #fe7232;
      }

      .cls-48 {
        fill: #fbf9a8;
      }

      .cls-49 {
        fill: #fea133;
      }

      .cls-50 {
        fill: #f53400;
      }

      .cls-51 {
        fill: #fd2f06;
      }

      .cls-52 {
        fill: #fe631c;
      }

      .cls-53 {
        fill: #fee51e;
      }

      .cls-54 {
        fill: #fe9227;
      }

      .cls-55 {
        fill: #fe9a47;
      }

      .cls-56 {
        fill: #f58701;
      }

      .cls-57 {
        fill: #feed62;
      }

      .cls-58 {
        fill: #fed10c;
      }

      .cls-59 {
        fill: #fe672d;
      }

      .cls-60 {
        fill: #ee6602;
      }

      .cls-61 {
        fill: #fe4e1e;
      }

      .cls-62 {
        fill: #f64c12;
      }

      .cls-63 {
        fill: #fec42e;
      }

      .cls-64 {
        fill: #fe7043;
      }

      .cls-65 {
        fill: #fec64d;
      }

      .cls-66 {
        fill: #fdc708;
      }

      .cls-67 {
        fill: #fd9c03;
      }

      .cls-68 {
        fill: #fe5238;
      }

      .cls-69 {
        fill: #fdd90c;
      }

      .cls-70 {
        fill: #f32d13;
      }

      .cls-71 {
        fill: #fb8702;
      }

      .cls-72 {
        fill: #fedb49;
      }

      .cls-73 {
        fill: #fed251;
      }

      .cls-74 {
        fill: #fe9a43;
      }

      .cls-75 {
        fill: #fe820a;
      }

      .cls-76 {
        fill: #fed64c;
      }

      .cls-77 {
        fill: #ed3a01;
      }

      .cls-78 {
        fill: #fec04b;
      }

      .cls-79 {
        fill: #f03801;
      }

      .cls-80 {
        fill: #fd5d38;
      }

      .cls-81 {
        fill: #fe6231;
      }

      .cls-82 {
        fill: #fec009;
      }

      .cls-83 {
        fill: #fea743;
      }

      .cls-84 {
        fill: #fec942;
      }

      .cls-85 {
        fill: #ef1c0a;
      }

      .cls-86 {
        fill: #fe6936;
      }

      .cls-87 {
        fill: #f62421;
      }

      .cls-88 {
        fill: #f37c04;
      }

      .cls-89 {
        fill: #fecf3a;
      }

      .cls-90 {
        fill: #fead3b;
      }

      .cls-91 {
        fill: #fe7242;
      }

      .cls-92 {
        fill: #fec64f;
      }

      .cls-93 {
        fill: #fe410e;
      }

      .cls-94 {
        fill: #f43303;
      }

      .cls-95 {
        fill: #fe8c2b;
      }

      .cls-96 {
        fill: #f78901;
      }

      .cls-97 {
        fill: #fe7348;
      }

      .cls-98 {
        fill: #ea1900;
      }

      .cls-99 {
        fill: #fedb55;
      }

      .cls-100 {
        fill: #eb1f00;
      }

      .cls-101 {
        fill: #e92f00;
      }

      .cls-102 {
        fill: #fd3904;
      }

      .cls-103 {
        fill: #f80200;
      }

      .cls-104 {
        fill: #f91f17;
      }

      .cls-105 {
        fill: #fecd54;
      }

      .cls-106 {
        fill: #fbf9af;
      }

      .cls-107 {
        fill: #fe4716;
      }

      .cls-108 {
        fill: #f8d5b6;
      }

      .cls-109 {
        fill: #fec83b;
      }

      .cls-110 {
        fill: #ec160a;
      }

      .cls-111 {
        fill: #ea0d04;
      }

      .cls-112 {
        fill: #f64b01;
      }

      .cls-113 {
        fill: #fe971d;
      }

      .cls-114 {
        fill: #f33102;
      }

      .cls-115 {
        fill: #fe4433;
      }

      .cls-116 {
        fill: #fe653f;
      }

      .cls-117 {
        fill: #feed5c;
      }

      .cls-118 {
        fill: #fe451c;
      }

      .cls-119 {
        fill: #feb941;
      }

      .cls-120 {
        fill: #f84e01;
      }

      .cls-121 {
        fill: #fdf478;
      }

      .cls-122 {
        fill: #febd48;
      }

      .cls-123 {
        fill: #fe271b;
      }

      .cls-124 {
        fill: #ef3b04;
      }

      .cls-125 {
        fill: #fd1c12;
      }

      .cls-126 {
        fill: #fff;
      }

      .cls-127 {
        fill: #ec2902;
      }

      .cls-128 {
        fill: #fe8003;
      }

      .cls-129 {
        fill: #fcfbd5;
      }

      .cls-130 {
        fill: #feca50;
      }

      .cls-131 {
        fill: #fe993e;
      }

      .cls-132 {
        fill: #f99d08;
      }

      .cls-133 {
        fill: #fcfcdb;
      }

      .cls-134 {
        fill: #ea0400;
      }

      .cls-135 {
        fill: #fe9b42;
      }

      .cls-136 {
        fill: #f9f8d6;
      }

      .cls-137 {
        fill: #fec946;
      }

      .cls-138 {
        fill: #fbf9a9;
      }

      .cls-139 {
        fill: #f9af05;
      }

      .cls-140 {
        fill: #feb319;
      }

      .cls-141 {
        fill: #ee5504;
      }

      .cls-142 {
        fill: #fea33c;
      }

      .cls-143 {
        fill: #f21a0d;
      }

      .cls-144 {
        fill: #fd3f03;
      }

      .cls-145 {
        fill: #fe5e26;
      }

      .cls-146 {
        fill: #fea444;
      }

      .cls-147 {
        fill: #ed5200;
      }

      .cls-148 {
        fill: #f38503;
      }

      .cls-149 {
        fill: #fe8f37;
      }

      .cls-150 {
        fill: #f33302;
      }

      .cls-151 {
        fill: #fea421;
      }

      .cls-152 {
        fill: #f2160a;
      }

      .cls-153 {
        fill: #fbb807;
      }

      .cls-154 {
        fill: #fe811e;
      }

      .cls-155 {
        fill: #fe7140;
      }

      .cls-156 {
        fill: #fee35d;
      }

      .cls-157 {
        fill: #fe7045;
      }

      .cls-158 {
        fill: #fee81d;
      }

      .cls-159 {
        fill: #fe5731;
      }

      .cls-160 {
        fill: #fe5f40;
      }

      .cls-161 {
        fill: #feaf3c;
      }

      .cls-162 {
        fill: #fec24b;
      }

      .cls-163 {
        fill: #fe5621;
      }

      .cls-164 {
        fill: #fd5a06;
      }

      .cls-165 {
        fill: #e80800;
      }

      .cls-166 {
        fill: #fe7748;
      }

      .cls-167 {
        fill: #fe9f47;
      }

      .cls-168 {
        fill: #fed444;
      }

      .cls-169 {
        fill: #fe7f10;
      }

      .cls-170 {
        fill: #fedf58;
      }

      .cls-171 {
        fill: #ed0500;
      }

      .cls-172 {
        fill: #fe952f;
      }

      .cls-173 {
        fill: #fe7a37;
      }

      .cls-174 {
        fill: #fea33e;
      }

      .cls-175 {
        fill: #fe5016;
      }

      .cls-176 {
        fill: #fec448;
      }

      .cls-177 {
        fill: #fefefe;
      }

      .cls-178 {
        fill: #fe743b;
      }

      .cls-179 {
        fill: #f9f6c7;
      }

      .cls-180 {
        fill: #fee60f;
      }

      .cls-181 {
        fill: #fe5f34;
      }

      .cls-182 {
        fill: #f6350b;
      }

      .cls-183 {
        fill: #fd4628;
      }

      .cls-184 {
        fill: #feb514;
      }

      .cls-185 {
        fill: #fe8915;
      }

      .cls-186 {
        fill: #fece51;
      }

      .cls-187 {
        fill: #f93b04;
      }

      .cls-188 {
        fill: #fe8723;
      }

      .cls-189 {
        fill: #ef7303;
      }

      .cls-190 {
        fill: #feaa34;
      }

      .cls-191 {
        fill: #fe7039;
      }

      .cls-192 {
        fill: #fdf57a;
      }

      .cls-193 {
        fill: #feb42c;
      }

      .cls-194 {
        fill: #ee2600;
      }

      .cls-195 {
        fill: #faf2a3;
      }

      .cls-196 {
        fill: #fe5814;
      }

      .cls-197 {
        fill: #f12000;
      }

      .cls-198 {
        fill: #fece47;
      }

      .cls-199 {
        fill: #fe5226;
      }

      .cls-200 {
        fill: #f82d05;
      }

      .cls-201 {
        fill: #fe5f3d;
      }

      .cls-202 {
        fill: #fe703b;
      }

      .cls-203 {
        fill: #f7a604;
      }

      .cls-204 {
        fill: #feb844;
      }

      .cls-205 {
        fill: #fe413e;
      }

      .cls-206 {
        fill: #fe6b3d;
      }

      .cls-207 {
        fill: #feb145;
      }

      .cls-208 {
        fill: #ef1500;
      }

      .cls-209 {
        fill: #fd6d42;
      }

      .cls-210 {
        fill: #fe6332;
      }

      .cls-211 {
        fill: #fe6d34;
      }

      .cls-212 {
        fill: #fed651;
      }

      .cls-213 {
        fill: #fe6e1d;
      }

      .cls-214 {
        fill: #f50f05;
      }

      .cls-215 {
        fill: #f3280e;
      }

      .cls-216 {
        fill: #f23700;
      }

      .cls-217 {
        fill: #eb0800;
      }

      .cls-218 {
        fill: #febf3a;
      }

      .cls-219 {
        fill: #ee150b;
      }

      .cls-220 {
        fill: #fed752;
      }

      .cls-221 {
        fill: #fd5c25;
      }

      .cls-222 {
        fill: #fbfae1;
      }

      .cls-223 {
        fill: #fe8833;
      }

      .cls-224 {
        fill: #fe6431;
      }

      .cls-225 {
        fill: #fed657;
      }

      .cls-226 {
        fill: #fe5013;
      }

      .cls-227 {
        fill: #fec03b;
      }

      .cls-228 {
        fill: #f61805;
      }

      .cls-229 {
        fill: #fdf07b;
      }

      .cls-230 {
        fill: #fbf9b8;
      }

      .cls-231 {
        fill: #fcf792;
      }

      .cls-232 {
        fill: #fe5c36;
      }

      .cls-233 {
        fill: #e90301;
      }

      .cls-234 {
        fill: #fa2b1d;
      }

      .cls-235 {
        fill: #fe9923;
      }

      .cls-236 {
        fill: #fea147;
      }

      .cls-237 {
        fill: #fe4c20;
      }

      .cls-238 {
        fill: #feb141;
      }

      .cls-239 {
        fill: #feae43;
      }

      .cls-240 {
        fill: #feda4d;
      }

      .cls-241 {
        fill: #ea3e00;
      }

      .cls-242 {
        fill: #fe853b;
      }

      .cls-243 {
        fill: #fe592c;
      }

      .cls-244 {
        fill: #fe9120;
      }

      .cls-245 {
        fill: #fcf79a;
      }

      .cls-246 {
        fill: #fe5c38;
      }

      .cls-247 {
        fill: #fecc03;
      }

      .cls-248 {
        fill: #faf9db;
      }

      .cls-249 {
        fill: #fd4a2a;
      }

      .cls-250 {
        fill: #fe4507;
      }

      .cls-251 {
        fill: #fe5d3b;
      }

      .cls-252 {
        fill: #fc470b;
      }

      .cls-253 {
        fill: #fbfac7;
      }

      .cls-254 {
        fill: #fee712;
      }

      .cls-255 {
        fill: #fe6843;
      }

      .cls-256 {
        fill: #febb2a;
      }

      .cls-257 {
        fill: #fed700;
      }

      .cls-258 {
        fill: #fea00a;
      }

      .cls-259 {
        fill: #fa3703;
      }

      .cls-260 {
        fill: #fe6933;
      }

      .cls-261 {
        fill: #fe8909;
      }
    </style>
  </defs>
  <g>
    <path class="cls-126" d="M23.79,41.3c-10.2,0-18.5-8.3-18.5-18.5S13.58,4.3,23.79,4.3s18.5,8.3,18.5,18.5-8.3,18.5-18.5,18.5Z"/>
    <path class="cls-234" d="M23.79,5.8c9.37,0,17,7.63,17,17s-7.63,17-17,17S6.79,32.17,6.79,22.8,14.41,5.8,23.79,5.8M23.79,2.8C12.74,2.8,3.79,11.75,3.79,22.8s8.95,20,20,20,20-8.95,20-20S34.83,2.8,23.79,2.8h0Z"/>
  </g>
  <g id="DEzorH.tif">
    <g>
      <path class="cls-177" d="M22.9,11.83h9.38v21.94H15.29v-7.22c.04-.32.19-.32.27,0,.37.06.56.87.27,1.09.3.18.57.42.81.8l-.13.29c.44.18.82.43.68.95.39-.13.73.34.54.68.26,0,.24.2,0,.27-.18.45-.59.18-.82-.14-.16.04-.12.17.14.41.18-.26.57-.04.41.27.18-.11.24-.05.14.14.44.03.71.34.95.68.17,0,.47.21.54.41.16-.19.52.19.68.41.04-.12.09-.12.14,0,.17-.19.39-.13.65.17.33.11.62.23.84.38.27-.18.68-.14,1.22.14.77-.07,1.54-.11,2.31-.14.11-.24.67-.31.95-.27.45-.47,1.08-.75,1.63-.54.26-.36.64-.78,1.09-.54.18-.37.48-.63.91-.79-.42-.31-.23-1.34.31-1.25-.24-.33.25-.6.54-.68.38-.5.75-1.01,1.05-1.56l.31-.08c.26-1.18.33-2.22.14-3.41l-.28-.1c.1-.26.1-.59.01-.99-.27-.03-.26-.17,0-.27-.26-.39-.44-.85-.54-1.36l-.27-.41c.08.37.03.59-.14.68.11.19.03.42-.14.54.09.16.03.22-.14.14-.2.41-.96.3-1.22,0-.2.18-.27.1-.14-.14-.4-.23-.35-1.03-.14-1.36-.09-.44-.02-.96.14-1.36-.11-.26-.09-.67,0-.95l-.17-.07c-.18-.73-.4-1.43-.65-2.11-.22-.04-.42-.33-.54-.54-.17.05-.28,0-.39-.12-.95-.93-1.9-1.82-3-2.57l-.28-.44c-.11-.17-.25-.26-.41-.27-.17.17-.21.09-.14-.14-.22,0-.35.27-.41.82-.6.1-.57-1.15-.14-1.36Z"/>
      <path class="cls-177" d="M22.9,11.83c.06.43-.15,1.04.14,1.36.04-.12.08-.12.14,0,.1.19.11.5,0,.68.1.44.11.93,0,1.36.26.08.26.2,0,.27-.01.31-.11.49-.27.54.07.24-.06.42-.27.54.09.19-.23.39-.41.27-.04.12-.09.11-.14,0-.21.1-.47.1-.68,0,.17.17.09.22-.14.14.01.26-.16.66-.41.82.23.46-.06,1.31-.54,1.5.03.1.03.21.02.31-.06.48-.21,1.53-.56,1.73.11.3.11.62,0,.95.37.31.08,1.22-.41,1.23v.14c-.41.32-1.3.19-1.63-.14-.12-.05-.12-.09,0-.14-.31-.22-.47-.72-.41-1.09-.05-.29-.1-.61-.14-.95-.07.11-.16.2-.27.27-.25.62-.56,1.11-.95,1.5.05.24-.06.55-.27.68.25.08.25.2,0,.27,0,.15-.05.24-.14.27.07.17.07.4-.14.41-.04.12-.08.12-.14,0v-12.94h7.62Z"/>
      <path class="cls-25" d="M16.1,26.41c-.2.01-.38.06-.54.14h-.27v-.27c.12-.4.12-.83,0-1.23v-.27h.14c.15-.06.2-.19.14-.41.03-.09.01-.21.14-.27.25.03.39.23.41.6.1.4.32,1.57,0,1.72Z"/>
      <path class="cls-6" d="M15.29,26.27v-1.23c.23.25.23.97,0,1.23Z"/>
      <path class="cls-200" d="M28.07,18.92c-.14-.55.16-1.5.49-.53,0,.01-.08-.17.06-.16.21.13.3.44.27.95.13.08.1.29,0,.41.08.36.02.77-.14,1.09-.12.7-.02,1.24.27,1.63.05.04.08.09.14.14.21.22.5.27.88.25l.07.16c-.32.77-1.6.54-1.77-.27l-.37-.25c-.16-1.13-.12-2.27.09-3.42Z"/>
      <path class="cls-187" d="M27.66,15.92c.22.23.36.46.41.68.36.34.74,1.19.54,1.63-.03.63-.11.03-.41-.14.1.29-.12.61-.14.82-.04.12-.08.12-.14,0-.09-.03-.08-.08,0-.14-.3-1.66-.46-2.27-1.6-3.54l-1.53-1.36c-.25,0-.48-.17-.68-.54-.19-.14-.43-.35-.27-.54.04-.12.08-.12.14,0,1.33,1.13,2.4,1.73,3.67,3.13Z"/>
      <path class="cls-4" d="M31.74,27.64c-.09.46-.85,1.48-1.36,1.63-.12-.03-.11-.08,0-.14l.1-.46c-.08-.49-.06-1.57.45-1.72.19-.28.38-.46.54-.54.12-.56.16-1.13.11-1.7l.16-.08c.34.87.34,1.87,0,3Z"/>
      <path class="cls-141" d="M29.84,29.95c-.09.14-.37.85-.27.95l.54.2c-.44.4-.98.61-1.5.89-.5-.41.09-1.42.41-1.91-.19-.24-.07-.61.27-.54-.05-.37.03-.41.27-.14.36-.02.5.26.27.54Z"/>
      <path class="cls-132" d="M28.07,31.04c.76.28-.23,1.47-.74,1.44-.01,0,.18-.09.2.06-.62.26-.99.37-1.63.54-.14.01-.19,0-.14-.14-.08-.4.81-1.23,1.22-1.09.3-.64.66-.91,1.09-.82Z"/>
      <path class="cls-88" d="M28.61,32c-.36.19-.71.38-1.09.54-.15-.04-.51.15-.11-.17.49-.4.68-.63.65-1.32-.26-.3-.12-.49.27-.41.22-.36.44-.54.68-.54l-.41,1.91Z"/>
      <path class="cls-77" d="M16.92,28.05c.03-.52.26-.47.68.14.16-.11.25.02.27.41.12.01.12.06,0,.14.12.03.12.08,0,.14.29.54-.12,1.17-.68.82-.24-.31-.47-.62-.68-.95-.04-.2.1-.43.41-.68Z"/>
      <path class="cls-127" d="M16.92,28.05c.05.27.18.53.13.82-.22-.09-.31-.36-.54-.14-.25-.38-.49-.63-.68-1.09v-.34c.23-.16.46-.27.68-.35.04-.12.08-.12.14,0,.44.17.67.78.27,1.09Z"/>
      <path class="cls-100" d="M16.1,26.41c.27-.17.5.33.41.54,0,.02-.12.18-.12.35,0,.26.22.52-.15.61l-.14-.48-.27.2c-.17-.42-.25-.62-.27-1.09-.01-.23,0-.46,0-.68.16.13.43.39.54.54Z"/>
      <path class="cls-46" d="M31.88,24.23c0,.19-.05.32-.14.41-.03.82.12,1.01-.27,1.77-.1-.02-.18-.04-.19-.07-.11-.56-.28-1.88.05-2.24-.1-.67-.01-.98.27-.95.18.34.19.73.27,1.09Z"/>
      <path class="cls-241" d="M29.97,28.32c.51-.63.65.35.41.82,0,.04,0,.09,0,.14-.1.52-.39.47-.54.68-.12-.13-.25-.38-.27-.54-.26-.08-.26-.2,0-.27.06-.41.19-.69.41-.82Z"/>
      <path class="cls-60" d="M18.82,30.36c.15.41.21.87.19,1.39.29.47.32.68.08.66-.36-.2-.37.12-.54-.41-.14-.01-.23-.1-.3-.22-.14-.25.09-1.49.3-1.69.04-.12.08-.12.14,0,.19-.06.23.12.14.27Z"/>
      <path class="cls-10" d="M20.05,31.59c.22.65.58,1.15,1.09,1.5.11-.56.82.11.27.27-.66-.14-.95-.32-1.5-.54-.47-.62-.56-1.12-.27-1.5.04-.12.08-.12.14,0,.22-.11.33.07.27.27Z"/>
      <path class="cls-148" d="M19.64,31.32c.12.37,0,1,.41,1.43l-.14.07s-.1.02-.14,0c-.68-.52-1.04-1.42-.68-2.18.04-.12.08-.12.14,0,.42-.06.49.35.41.68Z"/>
      <path class="cls-31" d="M18.28,29.68c0,.25-.3.78-.54.68-.21-.2-.37-.45-.54-.68.48-.2.6-.37.68-.82.33-.18.67.54.41.82Z"/>
      <path class="cls-189" d="M19.09,30.63c.06.52.03,1.09.26,1.58.15.31.46.26.42.6-.28-.12-.45-.28-.68-.41.21-.15-.22-.33-.27-.62-.08-.43.06-.99,0-1.43.04-.12.08-.12.14,0,.23-.1.2.07.14.27Z"/>
      <path class="cls-165" d="M31.74,27.64s-.14-.12-.11-.3c.16-.85.49-1.82.11-2.7,0-.15-.04-.34.14-.41.31,1.34.38,2.07-.14,3.41Z"/>
      <path class="cls-11" d="M18.55,30.09c-.24.56-.19,1.34,0,1.91-.53.11-.68-.47-.95-.68.1-.13.28-.18.54-.14-.1-.28-.05-.65.14-1.09-.15-.16-.07-.23.14-.14.15-.14.2-.06.14.14Z"/>
      <path class="cls-111" d="M29.02,18.64c-.03.2-.08.38-.14.54-.15-.28-.19-.64-.27-.95-.15-.55-.28-1.13-.54-1.63-.18-.19-.1-.26.14-.14.38.58.74,1.49.82,2.18Z"/>
      <path class="cls-153" d="M21.27,32.41c.37-.11.9.45.82.82l.54.14c.12.03.12.08,0,.14-.39-.04-.85-.05-1.22-.14.1-.37-.24-.24-.27-.27-.23-.08-.27-.17-.14-.27-.16-.17-.27-.38,0-.41-.03-.21.06-.21.27,0Z"/>
      <path class="cls-18" d="M23.58,12.51c.18-.08.3.08.27.27.13.16.25.33.27.54-.04.08-.08.08-.14,0-.07.19-.16.37-.27.54v.41c-.19-.05-.28-.28-.27-.68-.05-.2-.09-.42-.14-.68-.05-.04-.05-.14,0-.27-.25-.09-.15-.41.14-.27.04.05.1.09.14.14Z"/>
      <path class="cls-101" d="M31.2,22.46c.15.05.29.19.41.41,0,.09,0,.18,0,.27,0,.01-.12.09-.12.2,0,.34.39.85-.15.76-.22.12-.34-.04-.27-.27-.05-.41-.09-1.05.14-1.36Z"/>
      <path class="cls-108" d="M24.67,33.22c.16-.03.3-.04.27.14-.93.18-1.38.23-2.31.14.11-.33.61-.44.82-.14.06-.2,1.16-.49,1.22-.14Z"/>
      <path class="cls-219" d="M28.89,20.96c0,.46-.03.92.14,1.36-.03-.03-.2,0-.28-.06-.37-.31-.03-1.23,0-1.57.08-.04.12.05.14.27Z"/>
      <path class="cls-12" d="M18.41,29.95c-.04.05-.1.09-.14.14-.05.69-.23.97-.54.82-.42.01-.42-.25,0-.27.02-.08-.03-.21,0-.27.03-.08.42-.59.54-.68.23-.08.3.11.14.27Z"/>
      <path class="cls-16" d="M30.38,22.46c.19.1.09.4-.14.41-.01.12-.06.12-.14,0-.24-.02-.67-.03-.86-.14-.17-.09-.08-.26-.09-.27.44.08.8.2,1.22,0Z"/>
      <path class="cls-62" d="M17.73,30.63c-.03.1-.15.17,0,.27.12.04.12.08,0,.14.02.16-.13.19-.27.14-.04-.03-.28-.18-.41-.27-.22-.19-.27-.33-.14-.41.25.02.53.19.82.14Z"/>
      <path class="cls-134" d="M31.61,22.87c-.33.09-.24-.21-.41-.41-.11-.03-.16-.17-.14-.41-.19-.06-.15-.15,0-.27-.12-.03-.12-.07,0-.14v-.14c.23.4.5.88.54,1.36Z"/>
      <path class="cls-87" d="M23.45,12.38c-.11.06-.1.18-.14.27-.01.21-.06.39-.14.54h-.14v-1.23c.38-.1.32.3.41.41Z"/>
      <path class="cls-247" d="M25.76,32.95l.14.14c-.34.09-.56.2-.95.27-.14.05-.26-.13-.27-.14-.14-.34,0-.39.27-.14.25-.33.51-.47.82-.14Z"/>
      <path class="cls-217" d="M28.89,20.96l-.14-.27c.04-.37.1-.73.14-1.09.04-.12.08-.12.14,0,0,.42-.13.87-.14,1.36Z"/>
      <path class="cls-104" d="M31.06,21.64s0,.09,0,.14c-.06.23-.12.37-.27.14-.09.15-.13.1-.14-.14.03-.22-.1-.67.14-.68.15.14.24.32.27.54Z"/>
      <path class="cls-80" d="M17.73,31.04c.25-.33.36-.27.41.14-.17.19-.32.15-.54.14-.05-.04-.09-.1-.14-.14.02-.13.17-.15.27-.14Z"/>
      <path class="cls-19" d="M27.66,15.92c.11.12.28.13.54.54l-.14.14c-.1-.19-.42-.37-.41-.68Z"/>
      <path class="cls-233" d="M29.02,19.6h-.14c.01-.13,0-.27,0-.41.01-.18-.07-.45.14-.54.03.29,0,.65,0,.95Z"/>
      <path class="cls-183" d="M30.52,22.87c.11-.29.18-.3.27,0,.07.23,0,.54-.27.41-.09.29-.18.33-.27.14-.13.24-.42.55-.68.41-.27.24-.4.24-.41,0-.13-.23-.09-.34.13-.46l1.23-.5c-.12.09-.2.15-.27,0,.09-.11.08-.32.14-.41.02-.04.11-.07.14-.14.04-.12.08-.12.14,0,.23.14.14.51-.14.54Z"/>
      <path class="cls-228" d="M16.92,30.5l.14.41c-.16-.12-.87-.48-.14-.41Z"/>
      <path class="cls-143" d="M30.79,21.91c.12.04.12.09,0,.14.07.2.09.35-.14.27h-.14c.03-.18.12-.36.14-.54.04.04.11.08.14.14Z"/>
      <path class="cls-103" d="M31.06,21.51v.14l-.27-.54c.24.02.21.3.27.41Z"/>
      <path class="cls-208" d="M23.99,12.79h-.14c-.08-.1-.19-.17-.27-.27.39-.34.33.2.41.27Z"/>
      <path class="cls-124" d="M20.45,20.82c.09.02.16.04.16.07.05.81.03,3.06-.98,3.06-.31.1-.4-.04-.27-.41.2-.39.31-.81.41-1.23.1-.33.1-.65,0-.95.06-.88.29-1.28.54-2.04.4,0,.44.36.12,1.11l.02.39Z"/>
      <path class="cls-116" d="M17.87,18.24c-.21.96-.62,1.33-1.22,2.04-.24.18-.27-.23-.14-.41-.08-.2-.08-.42,0-.68.21-.66.64-1.25,1.22-1.63.1.13.15.36.14.68Z"/>
      <path class="cls-79" d="M16.65,22.87c.08.13.12.3,0,.41-.02.18-.06.32-.14.41-.21,1.17-.08,1.91.37,2.98.05.11-.01.21-.1.29-.04.12-.09.12-.14,0h-.14s-.34-.45-.41-.54c.12-.76-.33-1.64-.41-2.32,0-.08,0-.19,0-.27.13-.19.26-.33.41-.41-.04-.31.21-.85.54-.82.36.04.35.17,0,.27Z"/>
      <path class="cls-94" d="M21.54,17.83c.12.03.12.07,0,.14v.14l-.39,1.2-.16.02-.37,1.45-.17.05c-.38-.4.25-1.02-.14-1.5.17-.51.32-1.01.54-1.5.19-.26.37-.48.54-.68.03-.12.08-.11.14,0,.09.23.1.46,0,.68Z"/>
      <path class="cls-209" d="M17.19,22.46v.14c.15.27.33.54.54.82.02.04-.02.1,0,.14.17.08.34.22.27.41.18-.04.36.08.27.27h.14c.56.61-.5.66-.68.14-.45-.21-.76-.67-.95-1.36-.07.07-.11.03-.14-.14v-.27c-.29-.14.03-.6.27-.68.15-.02.24.16.27.54Z"/>
      <path class="cls-259" d="M23.72,14.28c.15.38.14,1.11-.14,1.36-.1,1.14-.51,1.63-1.22,1.5-.12-.04-.12-.08,0-.14.09-.14.25-.28.41-.41-.01-.15.11-.33.27-.27,0-.28.04-.55.14-.82,0-.09,0-.18,0-.27.04-.12.08-.12.14,0,.05-.56.09-1.1.14-1.63.03.15.18.53.27.68Z"/>
      <path class="cls-152" d="M16.92,21.64c.21,0,.19.19,0,.27-.04.19-.18.51-.27.68-.12.23-.38.53-.54.82-.17.15-.22.06-.14-.27.33-.86.35-.91.95-1.5Z"/>
      <path class="cls-98" d="M19.37,23.69c.12.46-1,.43-1.36.27-.04-.04-.16-.06-.2-.14-.06-.11-.04-.2-.07-.27.6.08,1.01.38,1.63.14Z"/>
      <path class="cls-115" d="M17.73,17.55c0-.27-.15-.8.27-.68.08.52-.03.9-.14,1.36-.22-.11-.13-.46-.14-.68Z"/>
      <path class="cls-150" d="M19.64,23.96c-.38.17-.83.26-1.36.27-.17-.02-.19-.19-.27-.27l.08-.1c.48.06.97.33,1.28-.17.02-.03-.02-.1,0-.14l.27.41Z"/>
      <path class="cls-215" d="M17.73,23.41c-.32.1-.5-.54-.54-.82,0-.16.05-.25.14-.27.07.27.29.8.41,1.09Z"/>
      <path class="cls-205" d="M17.19,21.37c.11.35.09.76,0,1.09l-.27-.54c.02-.08-.01-.19,0-.27.08-.08.05-.56.27-.27Z"/>
      <path class="cls-85" d="M21.41,17.15c-.09.28-.21.75-.54.68.13-.29.15-.59.41-.82.12-.06.16,0,.14.14Z"/>
      <path class="cls-171" d="M22.09,16.87s.1-.01.14,0c.25-.13.29-.12.14.14v.14c-.26.08-.81.17-.82,0-.04,0-.09,0-.14,0-.06,0-.12-.08-.14-.14.04-.04.07-.12.14-.14.22.09.46.1.68,0Z"/>
      <path class="cls-70" d="M23.31,15.24h-.14c0-.45-.01-.91,0-1.36.04-.12.08-.12.14,0,.14.4.1.93,0,1.36Z"/>
      <path class="cls-182" d="M23.04,16.33c-.17.16-.21.06-.14-.27.08-.18.11-.4.27-.54,0,.41.17.24-.14.82Z"/>
      <path class="cls-214" d="M23.31,12.92c.11.31.09.64,0,.95h-.14c0-.23-.02-.46,0-.68.02-.31.04-.29.14-.54v.27Z"/>
      <path class="cls-37" d="M17.33,22.32l-.14.27s0-.09,0-.14c-.04-.36.02-.73,0-1.09.27.34.05.62.14.95Z"/>
      <path class="cls-29" d="M16.1,23.41c-.12.21-.07.49-.41.41.02-.33.19-.46.27-.68l.14.27Z"/>
      <path class="cls-110" d="M22.77,16.6c-.08.1,0,.47-.41.41,0-.09-.06-.11-.14-.14l.41-.27c.04-.08.09-.08.14,0Z"/>
      <path class="cls-197" d="M15.56,24.37c.22.11.12.46.13.68-.18.05-.13-.16-.27-.27,0-.15.09-.27.14-.41Z"/>
      <path class="cls-171" d="M23.04,16.33c-.09.17-.21.2-.27.27h-.14c.09-.18.19-.36.27-.54l.14.27Z"/>
      <path class="cls-33" d="M19.77,22.32c.01-.32-.02-.64,0-.95.35.28.06.7,0,.95Z"/>
      <path class="cls-123" d="M16.65,20.28c-.07.09-.11.28-.27.27,0-.23,0-.45,0-.68.04-.12.08-.12.14,0,0,.15-.04.34.14.41Z"/>
      <path class="cls-125" d="M16.51,19.87h-.14c.01-.37.04-.37.14-.68,0,.23-.01.46,0,.68Z"/>
      <path class="cls-85" d="M22.09,16.87c-.09.21-.59.21-.68,0,.13-.03.52-.02.68,0Z"/>
      <path class="cls-68" d="M28.34,22.6c.58.35,1.03.79,1.77.27.04,0,.09,0,.14,0,.09,0,.18,0,.27,0-.19.34-.92.51-1.36.95-.37.19-.6.19-.68,0-.37-.03-.34-.14,0-.27-.37-.2-.6-.47-.68-.82-.21-.14-.27-.23,0-.27-.09-.03-.08-.08,0-.14.13-.04.31.05.54.27Z"/>
      <path class="cls-226" d="M28.34,22.6c-.14-.08-.41-.1-.54-.27-.12-.01-.12-.06,0-.14-.33-1.05-.29-2.14.14-3.27h.14c-.05.54.02,1.15,0,1.71-.02.73-.46,1.34.27,1.97Z"/>
      <path class="cls-237" d="M27.93,18.78c-.04.12-.08.12-.14,0-.23-.03-.32-.26-.27-.68-.26.11-.26-.05-.14-.27-.08-.61-.26-1.2-.54-1.77-.09,0-.17,0-.24-.02-.12-.05-1.57-1.66-1.79-1.93-.04-.05-.03-.13,0-.23.52.33,1.37,1,1.77,1.43,1.06,1.13,1.38,1.93,1.35,3.48Z"/>
      <path class="cls-232" d="M24.81,13.88c.66.68,1.47,1.43,2.04,2.18.21.36.26.64.14.82-.04.12-.08.12-.14,0-.12-.02-.21-.15-.27-.41-.28.12-.41-.43-.41-.68-.78-.67-1.53-1.36-2.24-2.08l.07-.37s.1-.02.14,0c.46.24.35.21.68.54Z"/>
      <path class="cls-163" d="M27.93,18.92c-.06,1.31-.31,1.86-.14,3.27-.61-.13-.86-1.57-.41-2.04.01-.56.15-1.02.41-1.36h.14s0,.09,0,.14Z"/>
      <path class="cls-50" d="M30.93,25.32c.11.51.11,1.01,0,1.5.12.03.12.08,0,.14-.05.41-.21,1.05-.29,1.55-.03.23-.07.47-.26.63,0-.31,0-.91-.41-.82-.25-.06-.23-.17,0-.27-.31-.16-.04-.85.27-.82l.26-2.09.28-.23c.43-.2.56.23.14.41Z"/>
      <path class="cls-7" d="M31.33,24.09c.02.36.05.35.09.64.06.46-.01,1.18.05,1.68-.13.26-.17.5-.48.68l-.07-.13s0-.09,0-.14c.11-.49.11-.98,0-1.5-.04-.12.05-.32-.14-.41-.31-.13-.31-.28,0-.41-.05-.35,0-.58.14-.68.04-.12.08-.12.14,0,.12.04.27.14.27.27Z"/>
      <path class="cls-36" d="M29.29,29.54c-.08.1-.11.42-.27.54-.14.28-.59.46-.68.54-.2-.2-.14-.31.14-.27-.12-.41-.03-1.21.41-1.36.1-.26.19-.31.27-.14.26.11.3.47.14.68Z"/>
      <path class="cls-67" d="M29.43,28.18c.04-.09.08-.08.14,0,.25.18.25.5,0,.95,0,.09-.01.19,0,.27-.07.05-.24.09-.27.14-.14-.21-.15-.44-.14-.68-.07-.19-.07-.42,0-.68.04-.07.09-.07.14,0,.01-.12.06-.12.14,0Z"/>
      <path class="cls-254" d="M27.12,31.32c.39-.05.34.14-.14.54-.33.27-.91.95-1.22,1.09-.27.12-.56.09-.82.14-.33-.23-.1-.58.27-.54-.07-.21.06-.41.27-.27.03-.27.12-.4.27-.41.04-.32.13-.41.27-.27.04-.12.09-.12.14,0,.19-.16.42-.25.68-.27.02-.31.18-.3.27,0Z"/>
      <path class="cls-58" d="M28.21,29.95c.24-.08.33.06.27.41-.05.09-.09.18-.14.27-.1.09-.17.31-.27.41-.35.32-.79.57-1.09.82.29-.16.12-.52.14-.54-.15-.21.36-1,.56-1.31.02-.03.06-.04.12-.05.08-.38.28-.37.41,0Z"/>
      <path class="cls-128" d="M18.01,27.09c.33-.04.43.44.27.68.07.39.02.66-.14.82.15.35-.02.41-.27.14,0-.04,0-.09,0-.14-.05-.5-.18-.96-.41-1.36-.35-.24-.4-.42-.14-.54-.19-.13-.25-.24,0-.27-.17-.33-.17-.55,0-.68.04-.12.08-.12.14,0l.14.45c.39.33.53.64.4.91Z"/>
      <path class="cls-216" d="M17.46,27.23c.24.26.44.74.14.95-.06.79-.21-.52-.68-.14-.07-.36-.14-.74-.27-1.09.04,0,.09-.01.14,0,.2-.37.54-.02.68.27Z"/>
      <path class="cls-56" d="M18.55,29.14c.34.14.33.7.14.95h-.14c-.03-.06-.1-.09-.14-.14-.03-.03-.1-.2-.14-.27-.15-.3-.16-.61-.41-.82,0-.04,0-.09,0-.14l.27-.14c.21-.1.35.08.41.54Z"/>
      <path class="cls-27" d="M17.46,27.23c.67.33.45.68.41,1.36-.07-.12-.24-.29-.27-.41-.07-.23-.09-.68-.14-.95Z"/>
      <path class="cls-96" d="M29.97,28.05c-.02.08.02.19,0,.27-.07.31-.15.61-.41.82-.02-.31.02-.64,0-.95.02-.27.24-.44.41-.14Z"/>
      <path class="cls-43" d="M19.09,28.05c.26.02.23.14,0,.27.39.39.23,1.65-.14,2.04h-.14c-.01-.08-.13-.2-.14-.27-.03-.3-.1-.62-.14-.95-.23-.39-.23-.61,0-.68l-.29-1.29c-.02-.11.04-.17.16-.21-.16-.28-.03-.39.27-.27l.29.03c-.02.45.02.89.11,1.33Z"/>
      <path class="cls-82" d="M19.77,31.32h-.14c-.07-.2-.35-.43-.41-.68-.4-.39.18-1.14.68-.95.09.47.17,1.33-.14,1.63Z"/>
      <path class="cls-66" d="M20.05,29.82c.14.51.27,1.04.38,1.59l-.24.18c-.04.12-.08.12-.14,0-.01-.03-.26-.13-.27-.27-.02-.57.14-1.06.14-1.63-.12-.03-.12-.07,0-.14.17-.27.26.06.14.27Z"/>
      <path class="cls-203" d="M20.45,32c.25.22.43.49.54.82,0,.04.11.24.14.27-.67-.06-.8-.56-1.05-1.07-.07-.15,0-.37-.04-.43h.14c.33-.18.5.12.27.41Z"/>
      <path class="cls-184" d="M19.64,28.05c.48.12.43,1.15.27,1.5,0,.05,0,.09,0,.14-.22.35-.79.49-.68.95h-.14s-.13-.15-.14-.27c-.05-.72.09-1.34.14-2.04,0-.22.21-.35.41-.27.04-.12.08-.12.14,0Z"/>
      <path class="cls-147" d="M18.14,31.18c-.13-.08-.26-.12-.41-.14v-.14c.33-.15.33-.52.54-.82-.04.36.13.8-.14,1.09Z"/>
      <path class="cls-180" d="M21.41,31.59c.14-.27.22-.13.27.14.18-.1.24.1.27.27.23-.18.63.32.41.54.43.27.52.49.27.68-.11.11-.29.11-.54,0-.34-.2-.59-.5-.82-.82-.29-.18-.84-.62-.54-.95.18-.27.58-.15.68.14Z"/>
      <path class="cls-69" d="M20.73,31.45c.13.27.37.71.54.95-.08-.02-.23.03-.27,0-.16.04-.34-.09-.54-.41-.06-.13-.25-.31-.27-.41-.09-.45-.06-1.22-.14-1.77.04-.12.08-.12.14,0,.25.32.8,1.27.54,1.63Z"/>
      <path class="cls-195" d="M23.17,32.95c.23.04.47.2.27.41-.23.03-.5.23-.82.14-.01-.05.02-.11,0-.14-.23,0-.23-.09,0-.14-.08-.19-.17-.52-.27-.68.21-.21.48-.07.82.41Z"/>
      <path class="cls-139" d="M21,32.41c.02.13-.02.29,0,.41-.37-.14-.4-.5-.54-.82.3-.02.38.31.54.41Z"/>
      <path class="cls-257" d="M22.63,33.22c.06.15,0,.13,0,.14-.26.06-.35-.02-.54-.14h.54Z"/>
      <path class="cls-23" d="M23.99,13.33c.61.98,1.46,1.45,2.18,2.45.04.23-.05.23-.27,0-.46-.14-.89-.45-1.31-.92-.07.4-.22.61-.46.65-.07.26-.19.26-.27,0-.04-.51-.08-1.05-.14-1.63-.03-.14-.17-.77-.13-.82.16.03.25.21.41.27Z"/>
      <path class="cls-232" d="M23.85,15.51c.29.09.15.58-.14.54-.04.12-.08.12-.14,0-.1-.08-.1-.21,0-.41.08-.51.14-.8.14-1.36,0-.14,0-.27,0-.41.21.88.27.65.14,1.63Z"/>
      <path class="cls-194" d="M23.45,13.6c-.07.52.16,1.22-.14,1.63v-2.32c.24.12.1.48.14.68Z"/>
      <path class="cls-114" d="M31.2,22.46c.03.48-.05.9-.14,1.36h-.14c-.3-.24-.3-.61,0-1.09-.25-.03-.23-.16,0-.27-.02-.27.02-.41.14-.41.13.11.13.25.14.41Z"/>
      <path class="cls-179" d="M25.21,32.54c-.11.14-.17.38-.27.54-.08.02-.18.11-.27.14-.34-.04-.86.08-1.22.14-.1-.1-.18-.34-.27-.41-.06-.04-.06-.09,0-.14.17-.1.42-.1.76.02.29-.15.54-.25.74-.29.14-.33.27-.43.41-.27.26-.15.31.05.14.27Z"/>
      <path class="cls-249" d="M31.06,22.05c-.03.19-.13.39-.14.41-.15,0-.2-.14-.14-.41-.02-.04.02-.1,0-.14l.27-.14c0,.09.01.19,0,.27Z"/>
      <path class="cls-201" d="M30.93,22.46c0,.09,0,.18,0,.27-.01.11-.06.15-.14.14h-.27c.12-.21.08-.36.14-.54.02-.06.14-.16.14-.27.04.11.2.22.14.41Z"/>
      <path class="cls-252" d="M18.55,24.23c-.03.12-.07.12-.14,0h-.14c.44-.27.85-.04,1.36-.27,1.04-.48.7-2.26.82-3.13.06-.51.38-1.06.54-1.5l.11.16c-.25,1.33-.4,2.68-.44,4.04-.34.77-1.38,1-2.11.71Z"/>
      <path class="cls-164" d="M17.33,25.32c.28.08.31.34,0,.41.02.22-.03.47,0,.68l-.15.05c-.32-.41-.5-.91-.66-1.41-.1-.43-.1-.88,0-1.36.03-.13-.04-.31.14-.41.22.63.49,1.25.82,1.87l-.14.18Z"/>
      <path class="cls-112" d="M16.51,25.05c.17.59.45,1.14.82,1.63.02.14.1.34.14.54-.19-.09-.48-.22-.68-.27-.52-.91-.52-2.29-.27-3.27.02.45-.04.91,0,1.36Z"/>
      <path class="cls-213" d="M16.78,23c.17.49.41.93.73,1.31l-.05.19c.12.04.12.08,0,.14.31.19.41.37.27.54.18.19.1.26-.14.14-.03.33-.16.31-.27,0-.16-.69-.61-.94-.68-2.04,0-.13,0-.27,0-.41.05.04.09.1.14.14Z"/>
      <path class="cls-64" d="M21.95,17.83c.39.11.41.72,0,.82.26.46.3.91.14,1.36.3.25.13.7-.27.68.24.32,0,.88-.41.82.05.29.05.49-.27.41l-.17-.14c.22-1.29.41-2.56.58-3.82,0-.04,0-.09,0-.14.02-.1.07-.14.14-.14.26-.27.31-.23.27.14Z"/>
      <path class="cls-221" d="M20.86,23c.3.04.26.44,0,.54-.04.75-1.89,1.63-2.18.82-.18.19-.27.11-.14-.14,1.98,0,1.97-.4,2.17-2.25.1-.88,0-1.78.27-2.66.15-.41.25-.91.54-1.23-.3,1.61-.53,3.25-.68,4.9Z"/>
      <path class="cls-224" d="M21.13,21.91c.26.04.24.15,0,.27.06.27.04.81-.27.82-.32-1.75.47-3.29.68-4.9,0-.04,0-.09,0-.14.26.13.11.48.07.69-.21,1.23-.52,1.93-.48,3.27Z"/>
      <path class="cls-118" d="M23.58,16.06c.03.4,0,1.11-.41,1.23-.05.12-.09.12-.14,0-.44.14-.89.28-1.36.41,0,.06-.07.12-.14.14,0-.23,0-.45,0-.68.25.01.58.03.82,0,1.16-.12.68-.68,1.22-1.5-.02.13.02.29,0,.41Z"/>
      <path class="cls-242" d="M17.73,24.37c.21.3-.03.35-.27.14-.04-.07-.3-.18-.44-.45-.16-.32-.26-.69-.24-1.05.37.3.68.95.95,1.36Z"/>
      <path class="cls-191" d="M18.69,24.37c.57.21.4.83-.14.68-.39.33-.84-.07-1.09-.41-.02-.03.02-.1,0-.14.1.02.25-.14.27-.14.31,0,.77.41.68-.14.05,0,.09,0,.14,0,.04.05.1.09.14.14Z"/>
      <path class="cls-243" d="M27.39,20.14c.1.69-.27,1.53.41,2.04,0,.04,0,.09,0,.14s0,.09,0,.14c-.44.07-.71-.3-.82-1.09-.29-.09-.32-1.04,0-1.09-.11-.29-.06-.76.27-.54.25-.03.24.23.14.41Z"/>
      <path class="cls-160" d="M27.8,22.73c.1.05.77.53.8.57.08.15-.1.2-.12.25-.04.21-.47.42-.54.14-.03.12-.08.12-.14,0-.29-.15-.58-.77-.41-1.09.08-.24.34-.09.41.14Z"/>
      <path class="cls-159" d="M29.16,23.82c.04.13,0,.17-.14.14-.16.18-.35.34-.58.48.08.35-.16.47-.37.2-.37.05-.41-.03-.14-.27-.14-.3.24-.8.54-.54.17-.04.48,0,.68,0Z"/>
      <path class="cls-181" d="M27.8,22.46v.27c-.13-.07-.26-.12-.41-.14-.62.4-.53-.8-.41-1.23.27,0,.32,1.02.82,1.09Z"/>
      <path class="cls-246" d="M28.48,23.55c-.02.07.02.19,0,.27-.16.03-.61.33-.54.54-.04.11-.09.11-.14,0-.41-.05-.25-.66.14-.68.18-.03.36-.1.54-.14Z"/>
      <path class="cls-145" d="M27.8,18.78c.03.45-.07,1.04-.41,1.36,0-.06-.2-.24-.14-.41-.21-.24-.17-.61.14-1.09-.35-.12-.14-.51.14-.54.08.22.25.35.27.68Z"/>
      <path class="cls-260" d="M27.39,17.83c.04.12.11.21.14.27-.03.18-.11.36-.14.54-.07.44-.25.76-.54.95-.04.12-.08.12-.14,0-.29-.11-.29-.3,0-.41-.16-.23-.28-.77.14-.68.06-.32.16-.74.41-.95.14-.05.19.04.14.27Z"/>
      <path class="cls-44" d="M27.39,17.83c-.04-.11-.11-.19-.14-.27-.25-.05-.34-.28-.27-.68-.09-.26-.15-.54-.14-.82.34.45.89,1.15.54,1.77Z"/>
      <path class="cls-15" d="M26.85,16.87c.34.5.23,1.1,0,1.63-.19.31-.11.39-.14.68-.04.12-.08.12-.14,0-.43-.1-.55-.47-.27-.82-.36-.07-.35-.16,0-.27-.26-.28.09-.83.27-1.09-.21-.2-.27-.39,0-.54.06.12.21.2.27.41Z"/>
      <path class="cls-211" d="M27.25,17.55c.15.53-.26.71-.41.95-.18-.55.17-1.09,0-1.63h.14c.06.19.19.47.27.68Z"/>
      <path class="cls-206" d="M26.17,15.78c.19.26.26.4.41.68.11.17,0,.45,0,.54-.22.35-.48.12-.41-.27-.31-.08-.46-.7-.27-.95.09,0,.18,0,.27,0Z"/>
      <path class="cls-102" d="M30.79,24.5c.02.12,0,.28,0,.41-.03.78-.22,1.69-.54,2.32-.23-.24-.27-.6-.14-1.09-.36-.2-.05-1.75.12-2.09l.29-.09c.31-.15.37.28.27.54Z"/>
      <path class="cls-144" d="M30.25,27.23c-.22.42-.17.39-.27.82-.15,0-.3.12-.41.14-.04,0-.09,0-.14,0-.09-.06-.12-.13-.08-.22.25-.55.48-1.1.63-1.69-.04-.13,0-.18.14-.14.01.38.06.72.14,1.09Z"/>
      <path class="cls-24" d="M30.93,26.82c.05-.47-.04-1.01,0-1.5.13.46.31,1.08,0,1.5Z"/>
      <path class="cls-51" d="M30.93,23.82c0,.22.08.57-.14.68-.02-.16-.15-.42-.27-.54-.38.04-.18-.5,0-.68.06-.05.19-.3.27-.41.04-.05.09-.09.14-.14-.02.36,0,.73,0,1.09Z"/>
      <path class="cls-140" d="M28.75,27.23c.4-.03.41.67.27.95.25.16.06.65-.14.82-.05.37-.23,1.03-.41,1.36-.15-.05-.24-.39-.27-.41l-.16-.16c.21-.79.26-1.56.15-2.29l.15-.13c-.21-.38-.09-.48.27-.27.17-.18.23-.1.14.14Z"/>
      <path class="cls-258" d="M29.16,28.86l-.27.14c.02-.17.14-.78.14-.82.04-.12.08-.12.14,0,.3.28,0,.58,0,.68Z"/>
      <path class="cls-250" d="M29.43,28.18s-.09,0-.14,0c-.3-.04-.35-.62,0-.54-.05-.46.05-.73.27-.82.11-.35.25-.53.41-.54.12.74-.29,1.27-.54,1.91Z"/>
      <path class="cls-196" d="M29.29,27.64c0,.07-.23.35,0,.54h-.27c0-.05-.25-.91-.27-.95-.17-.15-.07-.35.14-.41.04-.12.08-.12.14,0,.43-.07.39.5.27.82Z"/>
      <path class="cls-245" d="M26.17,30.91c.23.12,0,.51-.14.68-.08.02-.21.19-.27.27-.15-.1-.15-.28,0-.54l-.14-.1c.14-.73.28-1.43-.22-2.06l.09-.16c-.35-.42-.76-.78-1.22-1.09l-.11.16c-.34-.03-.67.1-.98.39-.38.64-.83.96-1.36.95-.08-.25.06-.53.41-.82-.24-.23-.18-.3.14-.27.31-.17.63-.35.95-.54-.24-.26.28-.56.59-.55,1.31.04,2.82,2.4,2.27,3.68Z"/>
      <path class="cls-230" d="M24.26,27.91c.47.3.88.66,1.22,1.09.62,1.08.39,1.16.27,2.32l-.27.95c-.1.13-.22.21-.27.27l-.14-.27-.11-.16c.98-1.77.56-3.63-1.79-3.52-.1-.04-.1-.08,0-.14.39-.69.29-.76,1.09-.54Z"/>
      <path class="cls-32" d="M27.8,29.95c-.24.97-.35.73-.68,1.36-.08.02-.24-.03-.27,0-.32-.03-.31-.18,0-.27,0-.38.37-1.18.82-1.23.04-.12.08-.12.14,0,.12.05.12.09,0,.14Z"/>
      <path class="cls-192" d="M26.44,29.14c.55.32.32,1.4,0,1.91.27.23.06.58-.27.54-.05,0-.1-.01-.14,0,0-.24.08-.46.14-.68.13-.59.12-1.2-.1-1.77l.1-.14c.08-.09.17-.05.27.14Z"/>
      <path class="cls-158" d="M26.85,31.04c-.03.05.02.19,0,.27-.09.07-.13.33-.36.38-.15.04-.28-.11-.32-.11.06-.18.23-.37.27-.54.04-.12.08-.12.14,0,.24-.36.35-.47.27,0Z"/>
      <path class="cls-138" d="M25.76,31.86c-.06.08-.15.25-.27.41,0-.33.02-.71.27-.95-.02.18.01.37,0,.54Z"/>
      <path class="cls-17" d="M28.34,27.36c0,.07.16.34.14.6-.05.62-.21,1.35-.28,1.98-.07-.04-.3.02-.41,0,.01-.04,0-.09,0-.14l-.12-.12c.16-.82.19-1.65.12-2.47-.34-.07-.34-.19,0-.27.26-.38.79.12.54.41Z"/>
      <path class="cls-120" d="M16.51,25.05l.82,1.36c.01.09-.01.19,0,.27-.6-.12-.77-1.11-.82-1.63Z"/>
      <path class="cls-75" d="M18.14,26.41c.4-.13.47.18.14.41.15.26.03.48-.27.27-.2-.43-.73-.69-.54-1.36.26.03.61.44.68.68Z"/>
      <path class="cls-169" d="M17.6,25.32c.3.07.88.55.82.95.01.33-.02.31-.27.14-.03-.04-.6-.3-.68-.68h-.14c-.01-.13.03-.3,0-.41.08.02.24-.03.27,0Z"/>
      <path class="cls-261" d="M18.41,26.96c.13.45.09,1.04.14,1.5-.35.04-.33-.39-.27-.68-.09-.22-.17-.47-.27-.68l.27-.27c.19-.19.26-.11.14.14Z"/>
      <path class="cls-71" d="M18.55,28.45c.02.22-.02.46,0,.68-.07-.12-.39-.47-.41-.54-.04-.19-.05-.71.14-.82.09.23.17.46.27.68Z"/>
      <path class="cls-151" d="M19.64,27.23c.15.18.11.45-.14.82-.11.16-.19.32-.41.27,0-.09,0-.18,0-.27-.29-.92-.2-1.42.27-1.5.26-.07.35.16.27.68Z"/>
      <path class="cls-113" d="M19.37,26.41c.12.04.12.08,0,.14-.43.35-.24,1-.27,1.5l-.41-1.36c-.14-.21,0-.31.41-.27.04-.12.09-.12.14,0,.03-.12.08-.12.14,0Z"/>
      <path class="cls-185" d="M18.41,26.27c.08-.27.2-.27.27,0,.22-.29.35-.18.41.14-.12.05-.3.19-.41.27-.1.08-.17.19-.27.27-.01-.05-.12-.09-.14-.14-.05-.12-.04-.28-.14-.41.04-.13.16-.13.27-.14Z"/>
      <path class="cls-256" d="M20.18,27.36c.16.06.2.33.14.82.4.08.24.67-.14.68.14.42.14.74,0,.95h-.14c-.02-.11,0-.24-.14-.27-.02-.42-.3-1.2-.27-1.5-.11-.34.26-1.26.54-.68Z"/>
      <path class="cls-193" d="M20.18,27.36c-.21-.19-.54.61-.54.68h-.14c-.03-.29.07-.55.14-.82-.08-.26-.03-.4.14-.41.09-.21.18-.26.27-.14.04-.12.09-.12.14,0,.23.21.32.51,0,.68Z"/>
      <path class="cls-106" d="M23.17,28.59c.12.05.18.14.12.23-1.39,1.33-1.58,2.03-.39,3.58.29-.05.34.17.27.41v.14c-.13-.1-.63-.33-.82-.41-.02-.03-.38-.51-.41-.54l-.27-.68c-.24.1-.36-.28-.14-.41-.09-.27-.11-.55,0-.82-.22-.16,0-.72.27-.68.44-.39.83-.7,1.36-.95-.02.03.02.1,0,.14Z"/>
      <path class="cls-53" d="M20.45,29.68c.08.07.13.2.14.41.21.1.35.38.41.82.1-.09.19,0,.27.27.26-.1.35.26.14.41-.03-.01-.47.08-.68-.14-.22-.48-.49-1.11-.54-1.63-.03-.28-.02-.67,0-.95.37-.05.42.02.2.3l.07.51Z"/>
      <path class="cls-231" d="M22.22,28.59c-.12.28-.28.51-.41.82-.1.24-.19.41-.27.68-.11.27-.09.54,0,.82.05.17.04.21.14.41.13.23.13.37,0,.41-.07-.05-.19-.1-.27-.14-.03-.13-.06-.29-.14-.41-.49-.87.03-2,.67-2.68.06-.06.19.01.28.09Z"/>
      <path class="cls-195" d="M21.95,32s-.26-.26-.27-.27v-.41c.09.18.36.34.27.68Z"/>
      <path class="cls-14" d="M25.89,15.78c-.06.31-.7.65-.95.41-.31.28-.58-.09-.68-.41v-.14c-.18.12-.25.05-.14-.14.09-.23.08-1,.46-.94.24.04,1.14.95,1.31,1.21Z"/>
      <path class="cls-91" d="M24.13,15.51c.11.03.1.04.14.14l-.05,1.05c.23.69.11,1.02-.36,1-.24.3-.82.22-.95-.14-.3-.16-.13-.2.14-.27.05,0,.09,0,.14,0,.28-.3.46-.71.54-1.23.04-.18.11-.37.14-.54.09.01.2-.02.27,0Z"/>
      <path class="cls-86" d="M23.72,16.06c-.04.21-.07,1.13-.15,1.22-.13.04-.27,0-.4,0,.16-.4.32-.8.41-1.23h.14Z"/>
      <path class="cls-253" d="M25.08,32.27c-.05.07-.3.18-.41.27-.18-.15-.09-.49.14-.54l-.1-.12c1.43-2.03-.97-4.29-2.22-1.51.12.05.12.09,0,.14-.1.21-.1.43,0,.68.09.08.14.21.14.41.18-.04.27.13.14.27.2.24.24.42.14.54-.49-.38-1.11-1.06-1.09-1.7.02-1.04.35-.8.83-1.23.19-.17.4-.65.54-.89.76-.69,2.09.39,2.37,1.09.21.52-.15,2.14-.47,2.58Z"/>
      <path class="cls-136" d="M24.53,32c.11-.2.26-.26.27,0-.07.16-.08.38-.14.54-.59.51-.68.72-1.5.27-.26-.06-.21-.24-.27-.41s-.07-.37-.14-.54l.17-.03c.38.46,1.12.94,1.41.19l.19-.03Z"/>
      <path class="cls-42" d="M18.55,25.05c.3-.27.52-.13.68.41.21-.16.28-.08.14.14.21.31.3.7-.14.82-.04.01-.1-.02-.14,0-.16.07-.35-.13-.41-.14-.34-.36-.65-.73-.95-1.09-.18-.19-.19-.41-.27-.54.31.18.8.26,1.09.41Z"/>
      <path class="cls-52" d="M18.69,26.27c-.08-.01-.19,0-.27,0-.4-.12-.71-.85-.82-.95l.14-.14c.34.37,1.4.45.95,1.09Z"/>
      <path class="cls-30" d="M24.81,18.51c.14.33.04.71-.32,1.15-.08.11-1.6,1.63-1.72,1.67-.2.06-.3-.04-.41-.23-.27.43-.74.02-.54-.41.1-.18.12-.44.27-.68,0-.5.27-1.24.82-.95.37-.6,1.29-.75,1.9-.54Z"/>
      <path class="cls-131" d="M21.95,22.87c.19.25-.11,1.15-.41,1.23-.1.39-.34,1.14-.82.95-.42-.21-.21-.62.14-.82.17-.67.26-1.36.27-2.04,0-.09,0-.18,0-.27.09-.13.21-.26.27-.41.48-.05.77.97.54,1.36Z"/>
      <path class="cls-166" d="M22.9,17.55c.33-.02.64.04.95.14.12.04.12.08,0,.14.3.28-.48,1-.82.82-.75.44-1.11.44-1.09,0,.02-.27-.02-.55,0-.82-.06-.42.71-.49.95-.27Z"/>
      <path class="cls-74" d="M21.81,20.69c.1.17.35.4.54.41.22.24.2.7,0,.95.13.02.13.12,0,.27.2.2,0,.47-.27.41.17.2.1.27-.14.14l-.54-1.36c.15-.34.24-.51.41-.82Z"/>
      <path class="cls-97" d="M23.04,18.64c.22.09.18.23-.14.41-.27.15-.65.68-.82.95.05-.34-.24-.61-.28-.91s.14-.41.14-.46c.52.4.63-.64,1.09,0Z"/>
      <path class="cls-251" d="M23.04,17.28l-.14.27c-.3.02-.76.25-.95.27-.05,0-.19-.12-.27-.14.02-.11-.03-.38,0-.41.05-.04,1.11,0,1.36,0Z"/>
      <path class="cls-59" d="M20.86,24.09c-.14.41-.27.74-.68.41-.36.29-.67.61-.95.95-.27-.15-.62-.38-.68-.41.2-.26.35-.37.14-.68.87.35,1.68-.08,2.18-.82.21.13.11.36,0,.54Z"/>
      <path class="cls-223" d="M20.86,24.23v-.14c.01-.18-.02-.37,0-.54s-.02-.37,0-.54c.02-.17.2-.62.27-.82,0,.01.12-.01.13.2.03.72,0,1.23-.4,1.84Z"/>
      <path class="cls-149" d="M26.98,20.28c-.04.31-.02.77,0,1.09-.17.37-.09.85.12,1.21-.02.19-.2.21-.39.15-.28-.03-.26-.17,0-.27-.41-.1-.34-.36,0-.54-.3-.6-.69-1.99,0-2.32h.14c.12.11.17.34.14.68Z"/>
      <path class="cls-81" d="M27.25,19.73s-.22.07-.27.54c-.21-.11-.15-.47-.14-.68.03-.55.32-.45.54-.95-.05.36-.05.73-.14,1.09Z"/>
      <path class="cls-255" d="M27.39,22.6c.23.35.48.63.41,1.09-.17.48-.58.35-.95.14-.04.12-.08.12-.14,0-.43-.11-.39-.94,0-1.09.31-.29.04-.93.14-1.29l.13-.07c.01.27-.06.61.03.86.06.18.3.24.38.36Z"/>
      <path class="cls-9" d="M27.8,23.69s.09,0,.14,0l-.14.68c.14.35-.03.4-.27.14-.32.23-.69-.38-.68-.68.31-.07.64-.09.95-.14Z"/>
      <path class="cls-199" d="M29.57,23.82c.14.19-.11.66-.27.82-.08.5-.37.36-.68.14-.63.14-.15-.5.24-.63l.16-.19s.09-.09.14-.14h.41Z"/>
      <path class="cls-210" d="M27.93,24.37s.07.18.14.27c.18.04.32.13.41.27.2.21.12.28-.14.14-.07.27-.3.27-.68,0-.04.12-.08.12-.14,0-.12-.02-.12-.07,0-.14-.32-.26-.5-.44,0-.41.01-.02.25-.14.27-.14.04,0,.12-.01.14,0Z"/>
      <path class="cls-243" d="M29.02,23.96s.06.18-.09.29c-.21.15-.77.03-.32.53.12.04.12.08,0,.14-.03.12-.08.12-.14,0-.56.11-.35-.19-.41-.27.4.01.44-.62.95-.68Z"/>
      <path class="cls-93" d="M30.52,23.96c-.2.89-.45,1.07-.41,2.18-.05.04-.1.08-.14.14-.14.18-.19.47-.41.54-.13-.94.03-1.98.41-2.86-.12-.12-.03-.3.27-.54.07-.06.2-.08.27-.14-.08.15.01.62,0,.68Z"/>
      <path class="cls-61" d="M30.25,23.41c.01.27-.14.37-.27.54l-.35,1.06-.19.03c-.04.12-.08.12-.14,0-.35-.15-.35-.26,0-.41.02-.36-.1-.42.27-.82.27-.29.52-.29.68-.41Z"/>
      <path class="cls-28" d="M26.57,19.19h.14c-.01.13.02.28,0,.41-.19,1.25-.11,1.2,0,2.32-.29.27-.42.09-.41-.54-.25-.24-.54-.95-.53-1.34s.43-1.36.81-.84Z"/>
      <path class="cls-131" d="M26.3,18.37c.11.27.18.54.27.82-.28-.07-.52.65-.54.89-.02.22.18,1.05.27,1.29.2.47.16.7-.14.68-.04.12-.08.12-.14,0-.19-.03-.22-.25,0-.27-.07-.51-.33-.98-.78-1.42-.3-.5.5-2.57,1.05-1.99Z"/>
      <path class="cls-135" d="M26.3,18.1c.03.06-.03.2,0,.27-.16.13-.33.02-.47.27-.04.07-.45,1.38-.46,1.45-.02.18.97,1.1.66,1.68-.25-.08-.63-.52-.54-.82-.23-.02-.43-.04-.27-.27-1.25-.49-.14-2.4.68-2.86-.12-.04-.12-.08,0-.14.38-.14.53.02.41.41Z"/>
      <path class="cls-155" d="M26.57,17.01c.02.22.14.48.14.6,0,.04-.45.24-.41.49-.03-.06-.35-.27-.41-.41-.36-.02-.34-.15,0-.27-.32-.21-.03-.59.27-.68l.41.27Z"/>
      <path class="cls-157" d="M25.89,15.78c.25.39.3.45.27.95-.02.46-.24.56-.27.68-.23.27-.33.22-.27-.14-.43-.04-.92-.73-.68-1.09.33-.26.53-.37.95-.41Z"/>
      <path class="cls-45" d="M28.34,26.68c.28-.1.47.19.27.41-.07.07-.27.19-.27.27-.09-.28-.44-.32-.54-.41-.24.22-.62-.13-.41-.41-.16-.29-.27-.53.14-.54.34-.02.62.21.82.68Z"/>
      <path class="cls-235" d="M28.48,26.14c.28-.25.53.39.41.68.02.14.02.35-.14.41-.03-.06-.13-.11-.14-.14-.02-.07-.2-.22-.27-.41-.28-.28-.32-.46-.14-.54.04-.28.21-.28.27,0Z"/>
      <path class="cls-175" d="M29.57,26.82c-.05.29-.02.6-.27.82-.04-.39-.23-.53-.27-.82-.13-.03-.14-.21,0-.27-.04-.44.05-.62.27-.54.18.09.27.36.27.82Z"/>
      <path class="cls-244" d="M28.89,26c.24-.09.28.09.14.54-.01.07-.01.2,0,.27h-.14c-.03-.2-.27-.59-.41-.68-.23-.11-.12-.36.14-.27.11-.19.2-.14.27.14Z"/>
      <path class="cls-121" d="M22.36,28.18c.12.03.12.08,0,.14-.02.08-.1.19-.14.27-.89.47-1.15,1.67-.95,2.59-.03-.05-.17-.12-.27-.27-.36-.68-.26-2,.54-2.18.15-.48.33-.75.54-.82.04-.06.09-.05.14,0,.34-.09.35,0,.14.27Z"/>
      <path class="cls-22" d="M25.08,27.64c.49-.05.93.94,1.09,1.36.24.68.16,1.25,0,1.91.3-1.61-.88-3.18-2.38-3.64-.17.01-.36.37-.47.51-.31.35-.54.39-.68.14.39-1.02,1.72-1.24,2.45-.27Z"/>
      <path class="cls-48" d="M25.49,29c-.37-.44-1.08-.55-1.22-1.09.76.2.86.46,1.22,1.09Z"/>
      <path class="cls-231" d="M23.31,27.77c-.29.34-.17.7-.95.54,0-.04,0-.09,0-.14-.11-.22.09-.42.27-.27l.68-.14Z"/>
      <path class="cls-63" d="M27.8,29.82h-.14c-.44.22-.37-.19-.27-.54-.03-.58-.04-1.17,0-1.78l.28-.13c-.16-.21-.09-.28.14-.14.54.85.21,1.62,0,2.59Z"/>
      <path class="cls-1" d="M27.39,29.27c.08.18.11.39.27.54-.15.39-.65.92-.82,1.23l-.07-.11-.21.11c-.03-.48.11-.8.41-.95,0-.41.09-.73.27-.95.18-.18.22-.1.14.14Z"/>
      <path class="cls-57" d="M26.03,27.5c.79-.04,1.16,1.9.95,2.59-.13.32-.27.63-.41.95h-.14c.15-.6.18-1.32,0-1.91-.44-.39-.67-.8-.68-1.23-.25-.27-.34-.5-.27-.68.24-.38.41-.03.54.27Z"/>
      <path class="cls-41" d="M25.76,27.91c.23.4.55.8.68,1.23-.08-.05-.2-.08-.27-.14-.53-.4-.47-.92-1.09-1.36-.94-1.09-1.88-.58-2.71.31l-.15-.04h-.14c-.05-.3.49-.9.77-1.13,1.08-.87,2.36.1,2.9,1.13Z"/>
      <path class="cls-227" d="M27.12,26.27c.2-.15.29-.06.27.27.09.09.34.35.41.41.02.08-.03.23,0,.27-.03.05-.13.11-.14.14-.26.27-.44.13-.54-.41-.24.01-.43-.36-.27-.54-.12-.04-.12-.08,0-.14,0-.23.09-.23.27,0Z"/>
      <path class="cls-34" d="M19.91,26.27c.12.17.04.43-.14.54-.05.14-.1.26-.14.41l-.27-.68v-.14c-.02-.38.16-.4.41-.14.04-.12.08-.12.14,0Z"/>
      <path class="cls-20" d="M19.77,26c.27-.02.17.12,0,.27-.13.08-.27.1-.41.14-.04.01-.1-.01-.14,0l.14-.82c.27-.17.41-.03.41.41Z"/>
      <path class="cls-89" d="M20.73,27.5c.29.16.3.93.27,1.23.18.2.1.27-.14.14-.23.21-.36.49-.41.82-.08-.27-.13-.58-.27-.82,0-.09.11-.53.14-.68-.08-.28-.07-.8.27-.68.04-.12.08-.12.14,0Z"/>
      <path class="cls-218" d="M20.73,26.82c.34.18.15.5-.14.68-.02.06-.18.22-.27.68-.24-.15-.12-.56-.14-.82-.01-.18-.19-.41,0-.68.03-.12.07-.12.14,0,.21-.28.35-.17.41.14Z"/>
      <path class="cls-161" d="M21.27,25.46c-.28.39-.54.81-.75,1.24h-.2s-.09-.01-.14-.01c-.04,0-.1,0-.14,0-.24-.06,0-.5.14-.68-.18-.2-.1-.27.14-.14.26-.5.58-.72.95-.68.21-.01.14.16,0,.27Z"/>
      <path class="cls-190" d="M20.05,26.68c-.06.02-.16.14-.27.14.05-.17.02-.32.14-.54-.11-.25.03-.48.27-.27l-.14.68Z"/>
      <path class="cls-195" d="M21.54,30.91c-.04-.14-.17-.19-.15-.48.01-.2.13-.27.15-.34v.82Z"/>
      <path class="cls-117" d="M21.54,28.73c-.44.78-.69,1.2-.54,2.18-.23-.35-.26-.43-.41-.82-.11-.46-.14-.92.27-1.23.05-.04.09-.09.14-.14-.12-.33-.06-.43.27-.27-.05-.3.11-.71.41-.82.03-.12.07-.11.14,0l.16.11-.43.98Z"/>
      <path class="cls-168" d="M20.86,28.86c-.19.38-.32.79-.27,1.23-.06-.16-.09-.24-.14-.41-.15-.76.16-.61.41-.82Z"/>
      <path class="cls-236" d="M24.26,15.78c.25.25.37.62.36,1.11.41.05.74.18,1,.38.03.05.21.08.27.14-.02.08.02.2,0,.27-.01.04.01.09,0,.14-.18.29-.3.38-.41,0l-.34.02c-.35.18-1.08.38-1.29-.02v-.14c.51-.62.06-1.44.41-2.04.01.03,0,.09,0,.14Z"/>
      <path class="cls-38" d="M24.94,16.19c.27.28.47.79.68,1.09-1.66.06-1.23-.35-1.36-1.5.23.03.53.25.68.41Z"/>
      <path class="cls-129" d="M22.49,30.36c.18-1.4,1.6-2.13,2.54-.91.68.88.14,1.72-.23,2.54h-.27c-.11-.05-.11-.09,0-.14.84-1.68-.52-3.43-1.68-1.42l-.36-.08Z"/>
      <path class="cls-248" d="M24.4,31.59c.28-.12.29.04.14.27,0,.04,0,.09,0,.14-.18,1.19-1.31.45-1.77-.14-.03-.08-.1-.15-.14-.27v-.27l.16-.1c.62.72.85.94,1.6.37Z"/>
      <path class="cls-47" d="M20.18,24.5c.21.25.06.65-.27.68.35.2.27.73-.14.82-.13-.15-.24-.3-.41-.41-.06-.04-.1-.11-.14-.14-.4-.58.53-.76.95-.95Z"/>
      <path class="cls-21" d="M25.89,17.83c-.18.63-.3.5-.52.91-.39.74-.74,1.18-.16,1.95l-.13.15c-.9-.25-1.53.13-2.18.67.17.21-.3.51-.54.54-.09-.34-.27-.59,0-.95.79.03.74-.47.99-.77.13-.16.45-.2.59-.36.37-.43.6-1.03.86-1.45-.34-.47.23-.8.68-.68.12.02.28-.02.41,0Z"/>
      <path class="cls-167" d="M25.49,17.83c-.37.07-.5.39-.68.68-.38.27-.87.19-1.25.31-.11.03-.62.22-.65.24.09-.1.09-.34.14-.41.06-.08.76-.8.82-.82.06-.02,1.16-.13,1.31-.13.2,0,.27.12.32.13Z"/>
      <path class="cls-178" d="M20.86,24.23c-.02.28-.12.54-.14.82.24.21,0,.47-.27.41-.21.36-.61.09-.54-.27.05-.27.04-.46.27-.68.26-.12.46-.19.68-.41,0,.05,0,.09,0,.14Z"/>
      <path class="cls-174" d="M21.54,24.5c.43.17.04.62-.27.68-.23.29-.77.52-.95.68-.32-.19-.23-.37.14-.41.06-.13.18-.28.27-.41.22-.32.63-.64.82-.95.22.02.13.26,0,.41Z"/>
      <path class="cls-238" d="M22.36,23c.09.07.19.18.15.27-.21.45-.47.88-.83,1.23-.04.12-.08.12-.14,0,.02-.13-.01-.27,0-.41.22-.37.27-.94.41-1.23.02-.04.1-.08.14-.14.26-.3.47-.05.27.27Z"/>
      <path class="cls-83" d="M25.49,20.96c.26.23.47.42.54.82.02.08,0,.18,0,.27.24.49.56,1.21,0,1.63.19.12.24.17,0,.27-.28-.28-.43-1.24-.14-1.5-.63-1.47-2.45-1.1-3.32-.09l-.21-.05c-.01-.09.02-.2,0-.27.17-.15.41-.37.54-.54.71-.71,1.66-.95,2.58-.54Z"/>
      <path class="cls-207" d="M25.89,22.46l-.2.05c-.9-1.31-2.34-.68-3.2.36.18.19.1.26-.14.14l-.27-.27c.07-.11.19-.33.27-.41.94-.94,3.29-1.85,3.54.14Z"/>
      <path class="cls-55" d="M26.17,22.05c.26.08.44.22.54.41,0,.09,0,.18,0,.27.03.36-.04.74,0,1.09.12.03.12.08,0,.14-.18.41-.61.05-.68-.27-.02-.53.05-1.12,0-1.63h.14Z"/>
      <path class="cls-39" d="M26.71,21.91c.02.18,0,.37,0,.54-.47,0-.62.13-.54-.41l.14-.68c.07.18.24.44.41.54Z"/>
      <path class="cls-202" d="M27.53,24.5c-.18.2,0,.32,0,.41-.19.35-.45,0-.54-.27-.34-.04-.63-.44-.27-.68,0-.04,0-.09,0-.14h.14l.68.68Z"/>
      <path class="cls-154" d="M29.29,24.64c0,.14,0,.27,0,.41.11.23.09.56,0,.82.12.01.12.06,0,.14-.08.13-.25.43-.27.54.05-.2-.12-.41-.14-.54-.28-.14-.39-1.26-.15-.83l-.12-.26v-.14l.68-.14Z"/>
      <path class="cls-188" d="M28.61,24.91c.07,0,.19-.02.24.02,0,.33-.01.75.03,1.07-.09-.04-.18-.09-.27-.14-.2.18-.28.09-.14-.14-.23-.09-.46-.56-.14-.68.1-.01.13-.13.14-.14.04,0,.09,0,.14,0Z"/>
      <path class="cls-172" d="M27.66,25.05c.4.06.78.3.54.68.29.03.24.32,0,.41-.23.15-.72-.28-.68-.54-.17-.18-.31-.5,0-.54h.14Z"/>
      <path class="cls-40" d="M27.53,24.91s0,.09,0,.14c.01.18,0,.36,0,.54-.04.12-.08.12-.14,0-.27.06-.66-.44-.41-.68-.21-.2-.21-.29,0-.27l.54.27Z"/>
      <path class="cls-95" d="M28.34,25.05l.14.68c.01.28-.2.27-.27,0-.07-.22-.35-.54-.54-.68.22-.02.46.03.68,0Z"/>
      <path class="cls-107" d="M29.57,26.82c-.2,0-.25-.62-.27-.82,0-.04,0-.09,0-.14.04-.28.09-.56.14-.82.1-.61.24-.68.54-1.09-.12.95-.24,1.92-.41,2.86Z"/>
      <path class="cls-175" d="M29.29,25.87c-.02-.26,0-.55,0-.82h.14c-.04.25.12.66-.14.82Z"/>
      <path class="cls-146" d="M25.21,20.69s.2.21.27.27c-.46.14-.93-.08-1.4.03-.39.09-.69.6-1.18.52.05-.06.03-.25.19-.41.52-.49,1.46-.67,2.12-.4Z"/>
      <path class="cls-49" d="M28.21,26.14c.06.18.07.37.14.54-.29-.21-.54-.46-.82-.68-.2.18-.27.1-.14-.14-.2-.19-.2-.29,0-.27h.14c.25.16.44.37.68.54Z"/>
      <path class="cls-90" d="M27.39,25.87s.09.1.14.14l-.14.54c-.09-.09-.19-.18-.27-.27-.26-.06-.54-.34-.27-.54-.18-.19-.1-.26.14-.14.16-.24.34.04.41.27Z"/>
      <path class="cls-54" d="M28.48,25.73c.05.02.09.11.14.14l-.14.27s-.23.03-.27,0c-.03-.1.03-.3,0-.41.08.01.2-.02.27,0Z"/>
      <path class="cls-5" d="M25.21,26.96c.3-.24.49-.04.27.27.1.15.17.51.27.68-1.46-1.59-2.34-1.91-3.67,0-.13.18-.46.66-.54.82.18-.37.2-.72.27-1.09.66-1.49,2.38-2.17,3.4-.68Z"/>
      <path class="cls-229" d="M25.08,27.64c-1.03-.74-1.62-.62-2.45.27-.07.08-.24.12-.27.27,0-.03-.15-.17-.14-.27.93-.93,1.92-1.71,2.86-.27Z"/>
      <path class="cls-109" d="M27.66,27.36c-.07.6.09,1.34-.27,1.91-.03-.07-.12-.11-.14-.14-.28.13-.39-.29-.14-.41l-.16-1.14.16-.09c-.14-.3-.14-.48,0-.54.1.12.41.28.54.41Z"/>
      <path class="cls-72" d="M26.71,27.36c.28.26.41.72.41,1.36.05.14.1.33.14.41.09.41-.15.65-.27.95-.02-.77-.34-1.47-.63-2.17-.06-.15-.25-.26-.32-.42-.08-.04-.08-.09,0-.14.07-.33.47-.18.68,0Z"/>
      <path class="cls-225" d="M25.49,26.27c.48.3.66.57.54.82.2.08.2.17,0,.27.02.04-.02.1,0,.14l-.54-.27c-.11-.17-.16-.17-.27-.27-.29-.28-.42-.51-.41-.68-.08-.04-.08-.09,0-.14.22-.32.52-.16.68.14Z"/>
      <path class="cls-204" d="M26.85,25.73c.11.14.17.43.27.54-.09-.01-.2.02-.27,0-.3.32-.71-.23-.68-.54-.44-.36-.54-.68-.27-.95.04-.12.08-.12.14,0,.37.28.65.6.82.95Z"/>
      <path class="cls-176" d="M26.17,25.73c.2.15.52.5.68.54v.14c.07.37.01.37-.27.14-.07.27-.19.26-.27,0-.3-.2-.77-.59-.68-.95-.12-.04-.12-.08,0-.14.22-.38.41-.03.54.27Z"/>
      <path class="cls-84" d="M27.12,26.96v.54c-.23.01-.79-.72-.54-.95.09-.02.18-.1.27-.14.1.16.16.41.27.54Z"/>
      <path class="cls-173" d="M20.45,25.46c-.05.11-.05.29-.14.41-.05.04-.09.1-.14.14-.12.1-.18.1-.27.27h-.14c0-.09-.01-.19,0-.27.04-.26.09-.56.14-.82l.54.27Z"/>
      <path class="cls-168" d="M21.27,27.23c.26.08.27.2,0,.27.18.2.18.52,0,.95-.11.13-.15.17-.27.27-.25-.38-.32-.77-.27-1.23-.04-.3.14-.48.41-.27.04-.12.08-.12.14,0Z"/>
      <path class="cls-137" d="M21.13,26.82c.26.12.26.28,0,.41-.14.07-.26.2-.41.27h-.14c.06-.21.06-.45.14-.68.14-.26.28-.36.41-.27.15.01.15.1,0,.27Z"/>
      <path class="cls-119" d="M20.73,26.82c-.24.04-.38-.14-.41-.14.24-.45.49-.96.95-1.23.09.39-.24,1.03-.54,1.36Z"/>
      <path class="cls-122" d="M24.53,22.32l.05.37-1.46,1.74-.36.06c-.58.3-1.04.7-1.36,1.23.34.19,0,.74-.27.82-.13.05-.3.25-.41.27.11-.34.53-1.23.54-1.36.01-.09,0-.18,0-.27.21-.26.23-.35.27-.68h.14l1.05-1.42.31.06c0-.55,1.14-1.38,1.5-.82Z"/>
      <path class="cls-133" d="M24.53,31.86c0-.13-.14-.26-.14-.27-.12-.03-.12-.08,0-.14l-.21-.23c.64-.88-.37-1.73-.82-.6h-.33c-.06.37-.19.6-.41.7-.01.08,0,.18,0,.27-.05-.14-.09-.26-.14-.41-.1-.25-.1-.48,0-.68,0-.04,0-.09,0-.14.43-.22.58-.9,1.09-1.04,1.39-.38,1.82,1.8.95,2.53Z"/>
      <path class="cls-129" d="M22.49,31.18c-.05-.17-.34-.48,0-.68,0,.23,0,.45,0,.68Z"/>
      <path class="cls-240" d="M21.68,27.64c0,.43-.2.56-.41.82-.27-.36-.09-.62,0-.95.25-.26.37-.22.41.14Z"/>
      <path class="cls-212" d="M21.95,27.09c.19.12.14.3-.14.54-.03,0-.09,0-.14,0-.14,0-.29-.07-.41-.14.02-.07-.01-.19,0-.27.02-.37.34-.6.68-.41.06.06.06.15,0,.27Z"/>
      <path class="cls-222" d="M23.04,30.63c.19.12.31.35.37.69.46-.08.79-.03.99.13,0,.04,0,.09,0,.14-.62,1.31-1.06.33-1.77-.27.08-.5.25-.44.41-.68Z"/>
      <path class="cls-13" d="M23.04,23.14c-.45.48-.7,1.1-1.36,1.36.15-.39.45-1.2.68-1.5.05-.06.08-.09.14-.14.17-.24.31-.28.41-.14.42-.1.31.11.14.41Z"/>
      <path class="cls-8" d="M26.71,23.96c.03.22.21.49.27.68.02.07-.03.21,0,.27-.25.26-.34-.02-.41-.27-.33.18-.48-.26-.54-.54-.12-.03-.11-.07,0-.14,0-.09,0-.18,0-.27l.68.27Z"/>
      <path class="cls-26" d="M25.89,22.46c.06.48-.16,1.13.14,1.5,0,.05,0,.09,0,.14.21.31.21.49,0,.54v.14h-.14c-.31-.49-.46-1.06-.47-1.72-.17-1.32-1.59-1.14-2.31-.26l-.21-.06c-.12.1-.35.09-.41.14.66-1.49,2.35-1.58,3.4-.41Z"/>
      <path class="cls-142" d="M26.98,24.91c.13.33.36.52.41.68.02.07-.01.19,0,.27-.11-.1-.31-.17-.41-.27-.26-.04-.59-.32-.41-.54-.23-.23-.23-.37,0-.41.12.1.28.18.41.27Z"/>
      <path class="cls-239" d="M26.57,25.05c.07.22.25.39.41.54l-.14.14c-.23-.29-.68-.43-.82-.95-.01-.04,0-.09,0-.14.2-.26.48.15.54.41Z"/>
      <path class="cls-156" d="M24.81,26.27c.11.24.41.37.41.68-.65-.61-1.56-.95-2.36-.39-.31.22-.63.95-1.04,1.07.04-.19.09-.36.14-.54.16-1.19,2.15-1.84,2.86-.82Z"/>
      <path class="cls-198" d="M26.57,26.55l.54.95v1.23c-.16-.43-.24-.96-.41-1.36-.35-.07-.48-.21-.41-.41-.32-.07-.31-.19,0-.27-.08-.05-.08-.09,0-.14.09-.01.2.02.27,0Z"/>
      <path class="cls-76" d="M26.71,27.36h-.68c-.17-.36,0-.26,0-.27-.15-.35.02-.41.27-.14.03.05.3.16.41.41Z"/>
      <path class="cls-170" d="M22.22,26c.49-.56,2.16-1.04,2.45-.14.32-.11.37.02.14.27.02.04-.02.1,0,.14-1.01-.63-2.32-.19-2.86.82.02-.08-.02-.19,0-.27-.39-.19-.04-.72.27-.82Z"/>
      <path class="cls-105" d="M25.62,26.27c-.04.12-.08.11-.14,0-.25-.08-.44-.06-.68-.14-.04-.09-.11-.18-.14-.27-.13-.18-.13-.27,0-.27.12-.37,1.3.26.95.68Z"/>
      <path class="cls-73" d="M26.3,26.68c.03.06-.03.22,0,.27l-.27.14c-.12-.3-.54-.43-.54-.82.04.01.1-.01.14,0,.23-.2.46-.06.68.41Z"/>
      <path class="cls-78" d="M25.89,24.78c.07.34.29.6.27.95-.17-.12-.48-.22-.54-.27-1.05-.19-1.16-1.27-.95-2.18-.43-.14-.31-.55.14-.41.39-.68.79.32.6.88l.49,1.03Z"/>
      <path class="cls-130" d="M25.62,25.59c.43.26.49.54.68.95.02.04-.02.1,0,.14-.21-.1-.48-.34-.68-.41-.22-.34-.5-.72-.95-.68-.23.03-.35-.11-.14-.27-.22-.12-.25-.22,0-.27l.17-.14c.31.23.61.46.92.68Z"/>
      <path class="cls-92" d="M25.62,25.46v.14s-.24.02-.4-.07c-.22-.12-.4-.42-.69-.47-.12-.02-.12-.07,0-.14-.29-.41-.52-1.38.14-1.63-.16,1.11.16,1.52.95,2.18Z"/>
      <path class="cls-186" d="M22.22,26c-.08.27-.21.57-.27.82-.22.16-.44.29-.68.41-.04.02-.1-.02-.14,0,0-.14,0-.27,0-.41.27-.85.64-1.17,1.09-.95.12.04.11.08,0,.14Z"/>
      <path class="cls-65" d="M22.63,25.05c.16.14.07.32-.27.54.25.14.14.3-.14.27-.56.13-.64.69-1.09.95,0-.09-.02-.2,0-.27.04-.18.2-.62.27-.82.23-.41.79-1.21,1.22-.82.09.04.09.08,0,.14Z"/>
      <path class="cls-35" d="M24.81,22.87c-.18.09-.1.28-.14.41-.15.6-.16,1-.14,1.63-.55,0-1.18.04-1.75.25l-.16-.12s-.02-.1,0-.14c-.31-.13-.12-.3.14-.41.44-.76,1.24-1.48,1.77-2.18.43-.36.77.36.27.54Z"/>
      <path class="cls-3" d="M22.9,22.73c.31-.25.68-.72,1.16-.81.32-.06,1.11.04,1.34.25.07.07.41,1.62.46,1.89.05.25,0,.52.03.71-.39-.05-.72-.71-.77-1.05-.03-.19.15-.43.09-.64s-.39-.2-.4-.22c-.06-.08.07-.46-.27-.54-.57-.14-1.15.44-1.5.82l-.14-.41Z"/>
      <path class="cls-162" d="M22.77,24.5c-.05.08-.07.27-.14.41-.84.04-.64.61-1.22.82.03-.08-.01-.23.07-.4.15-.3.9-.85,1.29-.83Z"/>
      <path class="cls-2" d="M24.4,31.45c-.93.33-1.48.29-1.36-.82.31-.47.52-1.16,1.28-.67.72.47.17,1.07.08,1.48Z"/>
      <path class="cls-83" d="M26.03,24.09c.16.18.36.4.54.54.02.12-.03.31,0,.41l-.54-.41c-.03-.16,0-.37,0-.54Z"/>
      <path class="cls-99" d="M24.53,25.32c0,.07.12.18.14.27.02.08-.02.2,0,.27-.09-.32-.91-.3-1.15-.28-.53.06-.8.36-1.3.41.01-.04-.01-.1,0-.14.03-.09.1-.18.14-.27.36-.56,1.94-1.05,2.18-.27Z"/>
      <path class="cls-220" d="M24.53,24.91s0,.09,0,.14c0,.09,0,.18,0,.27-.69-.33-1.53-.06-2.18.27.09-.24.19-.36.27-.54.54-.34,1.02-.22,1.63-.48.26-.11.09.25.27.35Z"/>
    </g>
  </g>
</svg>