<svg width="50" height="50" viewBox="0 0 50 50" fill="none" xmlns="http://www.w3.org/2000/svg">
<mask id="mask0_937_4370" style="mask-type:alpha" maskUnits="userSpaceOnUse" x="0" y="0" width="50" height="50">
<rect width="50" height="50" fill="#D9D9D9"/>
</mask>
<g mask="url(#mask0_937_4370)">
<path d="M22.9167 47.8125V43.6458C18.5764 43.1597 14.8524 41.3628 11.7448 38.2552C8.63715 35.1476 6.84028 31.4236 6.35417 27.0833H2.1875V22.9167H6.35417C6.84028 18.5764 8.63715 14.8524 11.7448 11.7448C14.8524 8.63715 18.5764 6.84028 22.9167 6.35417V2.1875H27.0833V6.35417C31.4236 6.84028 35.1476 8.63715 38.2552 11.7448C41.3628 14.8524 43.1597 18.5764 43.6458 22.9167H47.8125V27.0833H43.6458C43.1597 31.4236 41.3628 35.1476 38.2552 38.2552C35.1476 41.3628 31.4236 43.1597 27.0833 43.6458V47.8125H22.9167ZM25 39.5833C29.0278 39.5833 32.4653 38.1597 35.3125 35.3125C38.1597 32.4653 39.5833 29.0278 39.5833 25C39.5833 20.9722 38.1597 17.5347 35.3125 14.6875C32.4653 11.8403 29.0278 10.4167 25 10.4167C20.9722 10.4167 17.5347 11.8403 14.6875 14.6875C11.8403 17.5347 10.4167 20.9722 10.4167 25C10.4167 29.0278 11.8403 32.4653 14.6875 35.3125C17.5347 38.1597 20.9722 39.5833 25 39.5833ZM25 33.3333C22.7083 33.3333 20.7465 32.5174 19.1146 30.8854C17.4826 29.2535 16.6667 27.2917 16.6667 25C16.6667 22.7083 17.4826 20.7465 19.1146 19.1146C20.7465 17.4826 22.7083 16.6667 25 16.6667C27.2917 16.6667 29.2535 17.4826 30.8854 19.1146C32.5174 20.7465 33.3333 22.7083 33.3333 25C33.3333 27.2917 32.5174 29.2535 30.8854 30.8854C29.2535 32.5174 27.2917 33.3333 25 33.3333Z" fill="white"/>
</g>
</svg>
