<?xml version="1.0" encoding="UTF-8"?>
<svg id="_레이어_1" data-name="레이어 1" xmlns="http://www.w3.org/2000/svg" viewBox="0 0 45 45">
  <defs>
    <style>
      .cls-1 {
        fill: #bf5f01;
      }

      .cls-2 {
        fill: #1244c1;
      }

      .cls-3 {
        fill: #fecb07;
      }

      .cls-4 {
        fill: #f5c428;
      }

      .cls-5 {
        fill: #808da6;
      }

      .cls-6 {
        fill: #9a620b;
      }

      .cls-7 {
        fill: #fee845;
      }

      .cls-8 {
        fill: #f1e244;
      }

      .cls-9 {
        fill: #fef9b6;
      }

      .cls-10 {
        fill: #6f3803;
      }

      .cls-11 {
        fill: #efdc7c;
      }

      .cls-12 {
        fill: #f7a915;
      }

      .cls-13 {
        fill: #3e6bd4;
      }

      .cls-14 {
        fill: #fec62f;
      }

      .cls-15 {
        fill: #834905;
      }

      .cls-16 {
        fill: #eeb321;
      }

      .cls-17 {
        fill: #002ebf;
      }

      .cls-18 {
        fill: #feec55;
      }

      .cls-19 {
        fill: #fde436;
      }

      .cls-20 {
        fill: #fcb522;
      }

      .cls-21 {
        fill: #f8b50a;
      }

      .cls-22 {
        fill: #f6d133;
      }

      .cls-23 {
        fill: #fec918;
      }

      .cls-24 {
        fill: #884e06;
      }

      .cls-25 {
        fill: #fef8a2;
      }

      .cls-26 {
        fill: #fdb20b;
      }

      .cls-27 {
        fill: #f59b07;
      }

      .cls-28 {
        fill: #f9ac15;
      }

      .cls-29 {
        fill: #1946c5;
      }

      .cls-30 {
        fill: #fefabb;
      }

      .cls-31 {
        fill: #eef0d5;
      }

      .cls-32 {
        fill: #0135be;
      }

      .cls-33 {
        fill: #cf7206;
      }

      .cls-34 {
        fill: #fcea5f;
      }

      .cls-35 {
        fill: #fef66a;
      }

      .cls-36 {
        fill: #052bae;
      }

      .cls-37 {
        fill: #fedc31;
      }

      .cls-38 {
        fill: #fed134;
      }

      .cls-39 {
        fill: #df8305;
      }

      .cls-40 {
        fill: #0c30b1;
      }

      .cls-41 {
        fill: #d07306;
      }

      .cls-42 {
        fill: #fee342;
      }

      .cls-43 {
        fill: #fec038;
      }

      .cls-44 {
        fill: #fefbcc;
      }

      .cls-45 {
        fill: #fec50e;
      }

      .cls-46 {
        fill: #e78403;
      }

      .cls-47 {
        fill: #b59025;
      }

      .cls-48 {
        fill: #f7de85;
      }

      .cls-49 {
        fill: #fee53c;
      }

      .cls-50 {
        fill: #fdf750;
      }

      .cls-51 {
        fill: #fee013;
      }

      .cls-52 {
        fill: #feda41;
      }

      .cls-53 {
        fill: #f6c037;
      }

      .cls-54 {
        fill: #f7a914;
      }

      .cls-55 {
        fill: #f8e57a;
      }

      .cls-56 {
        fill: #e1cc71;
      }

      .cls-57 {
        fill: #f6cd30;
      }

      .cls-58 {
        fill: #e8ab31;
      }

      .cls-59 {
        fill: #fee53d;
      }

      .cls-60 {
        fill: #febf2d;
      }

      .cls-61 {
        fill: #0a36b5;
      }

      .cls-62 {
        fill: #eba326;
      }

      .cls-63 {
        fill: #d1750f;
      }

      .cls-64 {
        fill: #fab422;
      }

      .cls-65 {
        fill: #fef891;
      }

      .cls-66 {
        fill: #fef059;
      }

      .cls-67 {
        fill: #fddc2f;
      }

      .cls-68 {
        fill: #fedb33;
      }

      .cls-69 {
        fill: #fcac17;
      }

      .cls-70 {
        fill: #fb9709;
      }

      .cls-71 {
        fill: #f7b93d;
      }

      .cls-72 {
        fill: #fef04c;
      }

      .cls-73 {
        fill: #f9c42f;
      }

      .cls-74 {
        fill: #fec933;
      }

      .cls-75 {
        fill: #fec633;
      }

      .cls-76 {
        fill: #feed4b;
      }

      .cls-77 {
        fill: #ebdf42;
      }

      .cls-78 {
        fill: #fefbc0;
      }

      .cls-79 {
        fill: #002bbd;
      }

      .cls-80 {
        fill: #fec733;
      }

      .cls-81 {
        fill: #febf31;
      }

      .cls-82 {
        fill: #fed252;
      }

      .cls-83 {
        fill: #fdfab2;
      }

      .cls-84 {
        fill: #fdb928;
      }

      .cls-85 {
        fill: #fee93c;
      }

      .cls-86 {
        fill: #fee44a;
      }

      .cls-87 {
        fill: #feda57;
      }

      .cls-88 {
        fill: #fec338;
      }

      .cls-89 {
        fill: #febc33;
      }

      .cls-90 {
        fill: #f49a0a;
      }

      .cls-91 {
        fill: #feed51;
      }

      .cls-92 {
        fill: #0530b2;
      }

      .cls-93 {
        fill: #fed014;
      }

      .cls-94 {
        fill: #703a05;
      }

      .cls-95 {
        fill: #e3cb78;
      }

      .cls-96 {
        fill: #f2a10f;
      }

      .cls-97 {
        fill: #fdf550;
      }

      .cls-98 {
        fill: #fecb33;
      }

      .cls-99 {
        fill: #fefcdf;
      }

      .cls-100 {
        fill: #0333bf;
      }

      .cls-101 {
        fill: #fefdaf;
      }

      .cls-102 {
        fill: #da8309;
      }

      .cls-103 {
        fill: #fee050;
      }

      .cls-104 {
        fill: #fdce36;
      }

      .cls-105 {
        fill: #feee65;
      }

      .cls-106 {
        fill: #fedf31;
      }

      .cls-107 {
        fill: #e9890b;
      }

      .cls-108 {
        fill: #fec63c;
      }

      .cls-109 {
        fill: #e4900d;
      }

      .cls-110 {
        fill: #feee72;
      }

      .cls-111 {
        fill: #fef99b;
      }

      .cls-112 {
        fill: #224dc8;
      }

      .cls-113 {
        fill: #fec02a;
      }

      .cls-114 {
        fill: #fefef6;
      }

      .cls-115 {
        fill: #e7e591;
      }

      .cls-116 {
        fill: #1d48c2;
      }

      .cls-117 {
        fill: #fef77d;
      }

      .cls-118 {
        fill: #fefeec;
      }

      .cls-119 {
        fill: #faaa17;
      }

      .cls-120 {
        fill: #fec837;
      }

      .cls-121 {
        fill: #0c3ebd;
      }

      .cls-122 {
        fill: #feca31;
      }

      .cls-123 {
        fill: #fff;
      }

      .cls-124 {
        fill: #f6e944;
      }

      .cls-125 {
        fill: #e3d297;
      }

      .cls-126 {
        fill: #fefcd4;
      }

      .cls-127 {
        fill: #e28e0a;
      }

      .cls-128 {
        fill: #814805;
      }

      .cls-129 {
        fill: #1b42b7;
      }

      .cls-130 {
        fill: #ee9d13;
      }

      .cls-131 {
        fill: #506dbb;
      }

      .cls-132 {
        fill: #fdc138;
      }

      .cls-133 {
        fill: #efac29;
      }

      .cls-134 {
        fill: #e9980e;
      }

      .cls-135 {
        fill: #f0b12c;
      }

      .cls-136 {
        fill: #fb9b08;
      }

      .cls-137 {
        fill: #fef559;
      }

      .cls-138 {
        fill: #e4d4a5;
      }

      .cls-139 {
        fill: #fed634;
      }

      .cls-140 {
        fill: #fec232;
      }

      .cls-141 {
        fill: #fdb41e;
      }

      .cls-142 {
        fill: #fea509;
      }

      .cls-143 {
        fill: #feeb4a;
      }

      .cls-144 {
        fill: #fed035;
      }

      .cls-145 {
        fill: #fee739;
      }

      .cls-146 {
        fill: #fefbc7;
      }

      .cls-147 {
        fill: #70606b;
      }

      .cls-148 {
        fill: #93590a;
      }

      .cls-149 {
        fill: #fed948;
      }

      .cls-150 {
        fill: #fee03d;
      }

      .cls-151 {
        fill: #ead843;
      }

      .cls-152 {
        fill: #fdf573;
      }

      .cls-153 {
        fill: #fee67e;
      }

      .cls-154 {
        fill: #febf33;
      }

      .cls-155 {
        fill: #fbeeb7;
      }

      .cls-156 {
        fill: #fbdd32;
      }

      .cls-157 {
        fill: #fee058;
      }

      .cls-158 {
        fill: #ee8c04;
      }

      .cls-159 {
        fill: #fef561;
      }

      .cls-160 {
        fill: #804b09;
      }

      .cls-161 {
        fill: #fedf13;
      }

      .cls-162 {
        fill: #fed120;
      }

      .cls-163 {
        fill: #fefdfb;
      }

      .cls-164 {
        fill: #feda4f;
      }

      .cls-165 {
        fill: #e48706;
      }

      .cls-166 {
        fill: #2f4aa3;
      }

      .cls-167 {
        fill: #e7d577;
      }

      .cls-168 {
        fill: #feda3a;
      }

      .cls-169 {
        fill: #fec637;
      }

      .cls-170 {
        fill: #c86e0c;
      }

      .cls-171 {
        fill: #6d3704;
      }

      .cls-172 {
        fill: #fefefe;
      }

      .cls-173 {
        fill: #612c03;
      }

      .cls-174 {
        fill: #1945ae;
      }

      .cls-175 {
        fill: #fed832;
      }

      .cls-176 {
        fill: #fee039;
      }

      .cls-177 {
        fill: #fae948;
      }

      .cls-178 {
        fill: #f9b029;
      }

      .cls-179 {
        fill: #feb31f;
      }

      .cls-180 {
        fill: #f6c016;
      }

      .cls-181 {
        fill: #febc0f;
      }

      .cls-182 {
        fill: #feb92b;
      }

      .cls-183 {
        fill: #fee031;
      }

      .cls-184 {
        fill: #fdf57e;
      }

      .cls-185 {
        fill: #fefbcd;
      }

      .cls-186 {
        fill: #fefde4;
      }

      .cls-187 {
        fill: #ecd787;
      }

      .cls-188 {
        fill: #fdd134;
      }

      .cls-189 {
        fill: #f78100;
      }

      .cls-190 {
        fill: #1642ba;
      }

      .cls-191 {
        fill: #fed03a;
      }

      .cls-192 {
        fill: #925707;
      }

      .cls-193 {
        fill: #fdf788;
      }

      .cls-194 {
        fill: #f9f8bf;
      }

      .cls-195 {
        fill: #fec32b;
      }

      .cls-196 {
        fill: #f8ce39;
      }

      .cls-197 {
        fill: #fcb81b;
      }

      .cls-198 {
        fill: #6e3804;
      }

      .cls-199 {
        fill: #6c3604;
      }

      .cls-200 {
        fill: #c96d0b;
      }

      .cls-201 {
        fill: #faf3a6;
      }

      .cls-202 {
        fill: #2f58c3;
      }

      .cls-203 {
        fill: #fefeed;
      }

      .cls-204 {
        fill: #fea409;
      }

      .cls-205 {
        fill: #fed939;
      }

      .cls-206 {
        fill: #632e03;
      }

      .cls-207 {
        fill: #fcaf17;
      }

      .cls-208 {
        fill: #fed145;
      }

      .cls-209 {
        fill: #203aa4;
      }

      .cls-210 {
        fill: #f6a716;
      }

      .cls-211 {
        fill: #efd239;
      }

      .cls-212 {
        fill: #d3720a;
      }

      .cls-213 {
        fill: #feda33;
      }

      .cls-214 {
        fill: #e7dbac;
      }

      .cls-215 {
        fill: #feb726;
      }

      .cls-216 {
        fill: #fee247;
      }

      .cls-217 {
        fill: #fef088;
      }

      .cls-218 {
        fill: #fde434;
      }

      .cls-219 {
        fill: #884901;
      }

      .cls-220 {
        fill: #0024b7;
      }

      .cls-221 {
        fill: #995b06;
      }

      .cls-222 {
        fill: #9e8d5a;
      }

      .cls-223 {
        fill: #e4d182;
      }

      .cls-224 {
        fill: #fcd53c;
      }

      .cls-225 {
        fill: #fa9710;
      }

      .cls-226 {
        fill: #723b04;
      }

      .cls-227 {
        fill: #5e2a03;
      }

      .cls-228 {
        fill: #ecb014;
      }

      .cls-229 {
        fill: #eb971b;
      }

      .cls-230 {
        fill: #f4a415;
      }

      .cls-231 {
        fill: #fee36a;
      }

      .cls-232 {
        fill: #fec335;
      }

      .cls-233 {
        fill: #fed334;
      }

      .cls-234 {
        fill: #feee7a;
      }

      .cls-235 {
        fill: #c98c25;
      }

      .cls-236 {
        fill: #febd29;
      }

      .cls-237 {
        fill: #f6a009;
      }

      .cls-238 {
        fill: #feba2c;
      }

      .cls-239 {
        fill: #fdca36;
      }

      .cls-240 {
        fill: #fba515;
      }

      .cls-241 {
        fill: #338feb;
      }

      .cls-242 {
        fill: #f1d83f;
      }

      .cls-243 {
        fill: #fecb34;
      }

      .cls-244 {
        fill: #feb520;
      }

      .cls-245 {
        fill: #fef9aa;
      }

      .cls-246 {
        fill: #fad12b;
      }

      .cls-247 {
        fill: #dc801e;
      }

      .cls-248 {
        fill: #f1dac3;
      }

      .cls-249 {
        fill: #fecb36;
      }

      .cls-250 {
        fill: #a46507;
      }

      .cls-251 {
        fill: #0017ac;
      }

      .cls-252 {
        fill: #fefbc4;
      }

      .cls-253 {
        fill: #febd04;
      }

      .cls-254 {
        fill: #fec52c;
      }

      .cls-255 {
        fill: #feef47;
      }

      .cls-256 {
        fill: #fddb42;
      }

      .cls-257 {
        fill: #fec037;
      }

      .cls-258 {
        fill: #edc;
      }

      .cls-259 {
        fill: #dea938;
      }

      .cls-260 {
        fill: #feb21e;
      }

      .cls-261 {
        fill: #febd35;
      }

      .cls-262 {
        fill: #fbfad9;
      }

      .cls-263 {
        fill: #0010b1;
      }

      .cls-264 {
        fill: #633105;
      }

      .cls-265 {
        fill: #113ab3;
      }

      .cls-266 {
        fill: #feec8c;
      }
    </style>
  </defs>
  <g>
    <path class="cls-123" d="M22.18,41.7c-10.2,0-18.5-8.3-18.5-18.5S11.97,4.7,22.18,4.7s18.5,8.3,18.5,18.5-8.3,18.5-18.5,18.5Z"/>
    <path class="cls-241" d="M22.18,6.2c9.37,0,17,7.63,17,17s-7.63,17-17,17S5.18,32.58,5.18,23.2,12.8,6.2,22.18,6.2M22.18,3.2C11.13,3.2,2.18,12.16,2.18,23.2s8.95,20,20,20,20-8.95,20-20S33.22,3.2,22.18,3.2h0Z"/>
  </g>
  <g id="zmdTAR.tif">
    <g>
      <path class="cls-172" d="M20.18,33.55h-8.36V12.85h20.71v20.71h-8.62c-.02-.18-.01-.34.16-.4l2.35-.88c1.04-.48,2.85-1.59,2.77-2.84l.04-.44c.92-1.18,1.44-2.6,1.81-4.04l.2-.15c0-.32.05-.63.13-.9-.09-.36-.1-.8,0-1.16-.04-.29-.08-.59-.13-.9-.08,0-.12-.05-.13-.13v-.13c-.38-.35-.51-.86-.39-1.54.79.08,1.04-.17.77-.77-.39-.05-.78-.09-1.16-.13-.28-.12-.72-.45-.51-.77-.12-.04-.12-.08,0-.13l.45-.57c-.02-.34.27-.97.71-.84l-.06-.32c.13-.08.63-.63.49-.77-.11-.11-2.97-.14-3.11-.07.01.22-.08.35-.27.39,0,.27-.12.22-.26,0-.27.22-.85-.2-.77-.51-.2-.28-.04-.64.48-1.09.04-.07.11-.29.08-.32-.07-.08-2-.05-2.09,0,0,.21-.04.32-.27.39-.28.36-1.19.06-1.41-.26-.31,0-.61-.04-.9-.13-.02.11-.07.11-.13,0-.46-.12-.96-.13-1.41,0-.01.12-.06.11-.13,0-.32-.02-.62.03-.9.13.17.17.09.24-.13.13-.79.22-1.54.5-2.28.85l-.16-.07c.01.2-.21.19-.39.13l-.02.21c-1.16.62-2.02,1.63-2.73,2.72l-.21.03c-.39.49-.66,1.07-.88,1.66l-.15.02s.05.09.04.13c-.08.43-.24,1.2-.37,1.59-.01.04-.09.06-.19.08-.14,2.54.41,5.21,2,7.25l.05.46c.44,1.81,2.82,2.97,4.57,3.42.56.13.79.36.71.69Z"/>
      <path class="cls-163" d="M14.91,29.44h.34c.58.59,1.23,1.13,1.93,1.6l.05.33c.58.19,1.14.45,1.67.77.44.06,1.04.17,1.41.39l.64.13c.12-.15.27-.15.39,0,.46.12.95.12,1.41,0,.06-.21.29-.19.39,0l.64-.13.1-.17c1.01-.23,2.17-.53,2.98-1.12.69-.59,1.38-1.19,2.09-1.8h.23s.38.13.38.13c-.29,1.36-2.01,2.49-3.22,3.02-.81.35-1.76.48-2.44.97h-3.73c-.52-.51-1.44-.58-2.15-.88-1.04-.43-2.77-1.63-3.29-2.63-.26-.5.17-.19.16-.61Z"/>
      <path class="cls-102" d="M31.11,21.72c.1.19.11.47,0,.64.35,3.52-1.54,7.77-5.02,9-5.01,2.59-10.93-.07-12.72-5.34l.12-.44c.04-.11.08-.11.13,0h.16s.35,1.03.35,1.03c.31.19.7.81.77,1.16.19.32.4.62.64.9.11-.05.15,0,.13.13.22.37.52.69.9.9.12-.04.16,0,.13.13,3.75,3.18,9.15,2.4,12.09-1.41.34-.67.77-1.31,1.29-1.93.67-1.53.75-3.02.72-4.66l.31-.22s0,.09,0,.13Z"/>
      <path class="cls-41" d="M12.98,22.11c.1,1.17.27,2.33.51,3.47,1.74,5.34,7.29,8.3,12.6,5.79.11.04.11.08,0,.13-.73.64-2.13.91-3.15,1.02-1.32.14-2.85.03-4.06-.51-.55-.19-1.11-.41-1.67-.64-.76-.46-1.73-1.26-2.31-1.93-1.83-2.08-2.49-5-2.06-7.72.3-.15.36.26.13.39Z"/>
      <path class="cls-33" d="M31.24,22.75c.12.31.11.84,0,1.16.07.26.07.56,0,.9-.32,1.7-.91,3.32-2.06,4.63-.69.78-1.38,1.34-2.31,1.8-.13.22-.56.4-.77.26v-.13c3.14-1.49,5.1-5.63,5.02-9,.04-.11.08-.11.13,0,.12.03.09.29,0,.39Z"/>
      <path class="cls-2" d="M28.03,16.06c-.02-.21.01-.43,0-.64h3.6c.19.86-.3.97-.64,1.42-.41.12-.8.12-1.16,0-.2-.31-.11-.45.26-.39-.08-.31-.52-.23-.77-.13-.17.46-.74.26-1.03,0-.24.2-.51-.09-.26-.26Z"/>
      <path class="cls-13" d="M25.2,14.52c-.04-.17.03-.45,0-.64h2.57c.23.89-.55.98-.77,1.67-.04.11-.08.11-.13,0-.35.23-.64.2-.64-.26-.26-.23-.22-.26.13-.26-.16-.24,0-.33.26-.26l-.05-.14c-.45-.03-.91-.07-1.36-.12Z"/>
      <path class="cls-165" d="M30.73,20.05c.21.47.34,1.03.39,1.54-.23.94-.11,1.91-.29,2.86-.13.69-.43,1.4-.74,2.03-.1-.01-.1-.14,0-.39-.08-.04-.15-.08-.15-.09.09-.41.42-1.28.66-1.51-.09-.01-.16-.02-.16-.04-.03-.38-.01-1.8.02-2.19,0-.03.06-.06.14-.09-.34-.15-.47-1.08-.26-1.35.02-.31.02-.53,0-.64-.24.14-.43.14-.26-.13.19-.1.45-.09.64,0Z"/>
      <path class="cls-197" d="M22.75,14.13s.09,0,.13,0c.29.09.59.13.9.13.5.06.94.21,1.41.26l.26.13c.46.03.76.16.9.39-.05.08-.08.19-.13.26.18.32.11.42-.26.39-.11-.04-.11-.08,0-.13l-1.29-.64c-1.18-.3-2.37-.38-3.58-.26l-.15-.13c-.46.19-.84.23-1.16.13-.03-.14.1-.22.39-.26.04-.02.08-.12.13-.13.28-.1.58-.14.9-.13.04,0,.09,0,.13,0,.46-.13.95-.12,1.41,0Z"/>
      <path class="cls-70" d="M17.61,15.42c.18.19.13.29-.13.26-.96.62-1.65,1.45-2.24,2.42l-.33.03-.49.93c-.05.24-.14.36-.28.36l-.26.77c.11.03.11.07,0,.13-.04.23-.13.36-.26.39-.22-.06-.13-.46,0-.64-.04-.01-.08-.03-.1-.06-.1-.12.68-1.57.88-1.74.59-1.15,1.8-2.31,2.96-2.96.12,0,.24,0,.26.13Z"/>
      <path class="cls-27" d="M27,15.55c.19.09.61.38.77.51.13.2.3.32.51.39.48-.14,1.29.63.9,1.03.24.28.09.5-.26.39-.38.2-.78-.54-.9-.9-.06-.05-.1-.13-.13-.26-.03.11-.07.11-.13,0-.13-.02-.22-.11-.26-.26-.76-.13-1.02-.39-.77-.77-.04-.12,0-.17.13-.13.04.02.09-.02.13,0Z"/>
      <path class="cls-61" d="M29.31,17.48c.11-.06.28-.2.5-.44.37.06.77.25.48.62l-.46.59s-.01.11,0,.13c.13.3.06.35-.26.26.03.22-.12.34-.26.13-.41.34-.78-.32-.39-.64-.31,0-.3-.19,0-.26,0-.02.24-.37.26-.39.04-.11.08-.11.13,0Z"/>
      <path class="cls-121" d="M30.99,16.84c-.35.45-.67,1.07-1.16,1.41.01-.33.51-.6.39-.77-.02-.02-.43-.23-.45-.23-.1,0-.21.25-.32.3-.07.03-.12-.07-.13-.07-.31-.27.19-.84.51-.64.41-.21.75-.34,1.16,0Z"/>
      <path class="cls-46" d="M13.49,20.05c-.11,1.22-.22,2.44,0,3.68l-.13.18-.19-.07c-.12-.57-.19-1.15-.2-1.73-.03-.12.04-.3-.13-.39.09-.57.3-1.26.51-1.8.18-.17.25-.1.13.13Z"/>
      <path class="cls-240" d="M20.18,14.39c-.1.05-.29.18-.39.26-.65.3-1.29.6-1.93.91l-.13-.14c-.13-.02-.13-.11,0-.26.76-.37,1.58-.77,2.44-.77Z"/>
      <path class="cls-190" d="M31.5,19.28c.22.22.12.48.13.77-.3,0-.6-.01-.9,0-.21,0-.43,0-.64,0-.07.25-.18.24-.26,0-.13.08-.32.1-.55.06-.36.3-.81.28-1.37-.06-.08-.04-.08-.08,0-.13.04-.11.08-.11.13,0,.59-.1,1.21-.1,1.8,0,.32-.13.7-.09,1.03,0,.21-.24.42-.45.64-.64Z"/>
      <path class="cls-189" d="M13.62,20.05c-.04.11-.08.11-.13,0l-.13-.13c.21-.53.58-1.33,1.03-1.67-.18.35-.73,1.49-.77,1.8Z"/>
      <path class="cls-107" d="M30.34,19.15c-.11.1-.28.1-.39,0-.55-.02-.67-.19-.39-.51.07-.06.11-.23.26-.26.06.13.56.44.51.77Z"/>
      <path class="cls-147" d="M29.96,19.15c.13,0,.26,0,.39,0,.36.01.92-.11,1.16.13-.09.37-.35.33-.51,0-.24.06-.46.06-.64,0-.31.12-.81.09-1.16,0-.31.76-.81-.67,0-.26.17-.14.43-.21.47.07l.31.05Z"/>
      <path class="cls-178" d="M22.75,14.13c-.44-.02-.98-.04-1.41,0,.3-.21,1.09-.22,1.41,0Z"/>
      <path class="cls-212" d="M31.37,23.91c-.04.11-.08.11-.13,0v-1.16c.04-.11.08-.11.13,0,.01.37.02.79,0,1.16Z"/>
      <path class="cls-178" d="M23.78,14.26c-.28-.03-.72.12-.9-.13.38.02.62.1.9.13Z"/>
      <path class="cls-63" d="M31.24,24.81v-.9h.13c-.03.4-.07.56-.13.9Z"/>
      <path class="cls-178" d="M21.21,14.13c-.17.02-.73.09-.9.13.18-.24.62-.1.9-.13Z"/>
      <path class="cls-247" d="M31.37,22.75h-.13v-.39c-.11-.07-.09-.39,0-.51.22.28.12.56.13.9Z"/>
      <path class="cls-225" d="M17.74,15.16l.13.06-.13.19c-.03.12-.07.11-.13,0-.11,0-.22,0-.26-.13.13-.08.28-.08.39-.13Z"/>
      <path class="cls-229" d="M28.03,16.06c0,.08-.02.16.03.23.07.07.15.02.23.03.11.04.11.08,0,.13-.04-.03-.24.05-.36-.03-.08-.06-.09-.31-.15-.36h.26Z"/>
      <path class="cls-212" d="M31.24,21.85v.51h-.13c0-.21.02-.43,0-.64.05.04.09.08.13.13Z"/>
      <path class="cls-200" d="M26.87,31.24c.07.31-.16.27-.34.36-.98.52-1.65.74-2.75.92l-.64.13c-.13,0-.26,0-.39,0-.46.13-.95.12-1.41,0-.13,0-.26,0-.39,0l-.64-.13c-.62-.11-.84-.18-1.41-.39-.1-.04-.1-.08,0-.13,2.54.81,4.83.45,7.2-.51.23-.09.56-.15.77-.26Z"/>
      <path class="cls-1" d="M18.9,32.01v.13c-.71-.25-1.01-.37-1.67-.77.08-.26.39,0,.52.06.34.16.84.48,1.16.58Z"/>
      <path class="cls-170" d="M22.75,32.65c-.3.21-1.09.22-1.41,0,.44.02.97.02,1.41,0Z"/>
      <path class="cls-170" d="M20.95,32.65c-.32-.02-.43-.09-.64-.13.21,0,.53-.08.64.13Z"/>
      <path class="cls-170" d="M23.78,32.53c-.2.03-.33.1-.64.13.11-.21.44-.12.64-.13Z"/>
      <path class="cls-127" d="M16.71,29.82l.11-.15,1.18.79c.11-.03.16.01.13.13,3.47,2.17,7.85.78,10.44-2.14l.23-.04c0,.25-.17.36-.32.52-3.12,3.46-8.23,4.15-11.77.9Z"/>
      <path class="cls-109" d="M14.01,25.84l.28-.03c.66,1.74,2.02,3.13,3.54,4.19l.04.22c.13.08.17.17.13.26-.54.05-.79-.55-1.29-.64-.04-.04-.08-.09-.13-.13-.38-.21-.68-.53-.9-.9-.04-.04-.09-.09-.13-.13-.24-.28-.46-.58-.64-.9-.3-.37-.62-.67-.77-1.16-.14-.24-.35-.58-.13-.77Z"/>
      <path class="cls-109" d="M30.09,26.48c-.34.68-.78,1.36-1.29,1.93-2.5,2.79-5.99,4.16-9.64,2.76-.32-.12-.83-.3-1.03-.58,3.41,1.49,7.04.92,9.77-1.67-.05-.11,0-.15.13-.13.71-.81,1.33-1.69,1.84-2.63l.22-.07v.39Z"/>
      <path class="cls-39" d="M13.37,23.91c.17.51.31,1.02.39,1.54l-.13.13h-.13c-.39-1.2-.66-2.15-.51-3.47.15.63.17,1.18.39,1.8Z"/>
      <path class="cls-127" d="M13.75,24.68c.34.07.58.95.26,1.16.08.26.07.59.13.77-.3-.18-.43-.69-.51-1.03-.13-.49-.2-1.16-.26-1.67.2.09.33.34.39.77Z"/>
      <path class="cls-127" d="M16.58,29.7c-.38-.08-.82-.51-.9-.9.28.28.63.66.9.9Z"/>
      <path class="cls-127" d="M15.55,28.67c-.27-.27-.63-.41-.64-.9.22.27.6.52.64.9Z"/>
      <path class="cls-258" d="M29.31,16.32c.24-.1.86-.17.77.13-.08.13-.17.26-.26.39-.16.22-.38.4-.51.64-.04.02-.11-.02-.13,0-.17-.4-.53-.81-.9-1.03v-.13c.32.03.7,0,1.03,0Z"/>
      <path class="cls-174" d="M29.31,16.32c.18-.25.62-.1.9-.13.07.24-.11.22-.13.26-.14-.22-.53-.12-.77-.13Z"/>
      <path class="cls-202" d="M26.87,15.55s-.09.09-.13.13c.09.25,0,.35-.26.26-.42.52-1.03.33-.51-.26.1-.13.17-.27.26-.39.19.13.43.17.64.26Z"/>
      <path class="cls-248" d="M26.61,14.78c-.09.14-.22.2-.26.26-.32-.07-.63-.2-.9-.39.16-.08,1.04-.12,1.14-.03.03.03.03.09.01.16Z"/>
      <path class="cls-131" d="M25.2,14.52c.5.05,1.04-.03,1.54,0,.07.24-.1.22-.13.26-.26-.27-.79-.08-1.16-.13-.04-.03-.22.03-.26-.13Z"/>
      <path class="cls-134" d="M30.34,20.82c-.17.55.26,1.13.26,1.35v2.31c0,.25-.38,1.32-.51,1.61-.5,1.09-1.24,1.88-2.06,2.7.08-.58.42-1.1,1.03-1.54l-.04-.19c1.01-1.52,1.47-3.4,1.2-5.21-.27-.17-.39-.8-.13-1.03.04-.33.16-.32.26,0Z"/>
      <path class="cls-90" d="M30.34,20.18c.16.06.27-.15.26.2,0,.38-.25.42-.26.45h-.26c-.1,0-.14-.08-.13-.26-.09-.04-.09-.08,0-.13-.08-.21.04-.29.39-.26Z"/>
      <path class="cls-142" d="M30.09,20.05c.03.15.18.1.26.13-.05.14-.36.22-.39.26-.1.21-.14.17-.13-.13-.12-.03-.11-.08,0-.13-.11-.04-.11-.08,0-.13.09,0,.17,0,.26,0Z"/>
      <path class="cls-161" d="M24.94,15.16c.35.08.69.21,1.03.39.01.03,0,.08,0,.13-.04.22-.11.33-.26.13-.25.27-.57.1-.64-.26-.67.12-1.1-.01-1.29-.39-.13.08-.28.11-.39,0-.19-.19-.49-.28-.9-.26-.28.13-.65.18-.9,0l-.77.13c-.01.12-.06.11-.13,0-.13,0-.17-.03-.13-.13,1.2-.71,3.09-.26,4.37.26Z"/>
      <path class="cls-162" d="M24.68,14.91c.15.06.24.14.26.26-.9-.17-1.98-.52-2.89-.53-.5,0-1.06.22-1.48.27-.13.17-.43.22-.51,0l-.05-.14.95-.24c1.48-.13,2.3-.08,3.73.39Z"/>
      <path class="cls-180" d="M25.97,15.55c-.4.06-.73-.15-1.03-.39-.09-.08-.17-.17-.26-.26.29.1,1.17.34,1.29.64Z"/>
      <path class="cls-23" d="M20.95,14.52l-.9.39c-.04.11-.09.11-.13,0-.28.17-.4.17-.39,0-.06-.1.03-.18.26-.26.36-.07.79-.1,1.16-.13Z"/>
      <path class="cls-26" d="M17.48,15.68c.06.09.02.17-.13.26l-.05.32c-.6.47-1.14,1.01-1.62,1.61.24.3,0,.73-.39.64.28.27-.04.6-.39.51.13.32.04.41-.26.26.16.24.19.39-.13.39-.27.09-.32-.02-.24-.28l.62-1.27c.64-.92,1.46-2.1,2.57-2.44Z"/>
      <path class="cls-158" d="M13.62,20.69c.02.91.02,1.81,0,2.7.27.54.31.96.13,1.29-.06-.2-.31-.57-.39-.77-.14-1.3-.25-2.59.13-3.86h.13c-.03.2.02.44,0,.64Z"/>
      <path class="cls-204" d="M14.52,19.66c.22.15.14.27-.13.26.33.09.33.14,0,.26.22.21.17.3-.13.26.04.42-.04.59-.26.51.15.24.15.37,0,.39.07.25.03.38-.13.39-.04.11-.08.11-.13,0-.28-.39-.05-.98.13-1.41,0-.04,0-.09,0-.13l.26-.77c.24-.54.46-.83.77-1.29.03.52-.75,1.06-.39,1.54Z"/>
      <path class="cls-136" d="M13.75,21.72c.07.77.16,1.54.26,2.31-.21.06-.33-.16-.39-.64-.1-.87-.3-1.84,0-2.7.04-.12.18-.27.26-.39-.07.46-.12.95-.13,1.41Z"/>
      <path class="cls-181" d="M19.8,14.65c-.09.07-.17.18-.26.26-.17.38-1.18.85-1.54.77-.12.23-.46.52-.64.26.04-.09.09-.17.13-.26s.09-.17.13-.26c.04,0,.09,0,.13,0,.67-.13,1.23-.6,2.06-.77Z"/>
      <path class="cls-136" d="M13.88,20.18c.08-.49.09-.4.26-.77l-.26.77Z"/>
      <path class="cls-21" d="M28.93,17.86c-.02.06,0,.18,0,.26-.04.34-.16.33-.26,0-.02.11-.07.11-.13,0-.34-.08-.73-.45-.51-.77-.12-.07-.09-.28,0-.39l.9.9Z"/>
      <path class="cls-228" d="M27.51,16.45c-.13.1-.3.14-.51.13-.32.06-.69,0-.64-.39-.14-.07-.1-.15.13-.26.07-.09.17-.17.26-.26.03.33.47.53.77.77Z"/>
      <path class="cls-3" d="M27.51,16.45c.09.07.19-.18.26.26-.17.09-.46.08-.64,0-.11-.01-.15-.05-.13-.13.09-.3.28-.21.51-.13Z"/>
      <path class="cls-222" d="M27.9,17.35c-.02.12-.07.11-.13,0-.11-.03-.11-.07,0-.13-.34-.08-.3-.22,0-.39-.11-.03-.11-.08,0-.13.05,0,.1-.01.13,0,.09.19.11.48,0,.64Z"/>
      <path class="cls-253" d="M28.03,16.96c.03.11-.03.29,0,.39-.04.11-.08.11-.13,0v-.64c.12.05.1.16.13.26Z"/>
      <path class="cls-36" d="M28.93,18.12c.01.37.09.44.39.64.28.2.21.29-.13.26-.04.05-.33.17-.26.26.08.02.22-.02.26,0,.09.01.15.03.13.13.39.06.48.16.13.39-.47.1-.94.1-1.41,0-.16,0-.21-.17-.13-.51-.11-.03-.11-.07,0-.13-.28-.29-.11-.49.26-.39-.14-.29.28-.53.51-.64h.26Z"/>
      <path class="cls-237" d="M29.57,18.64c.2.03,0,.36.01.37.03.03.3,0,.38.14-.24,0-.63.09-.77-.13.05-.07.08-.2.13-.26s.19-.07.26-.13Z"/>
      <path class="cls-92" d="M31.5,19.28v.64c-.21,0-.43-.01-.64,0-.35-.05-.7-.09-1.03-.13-.13.1-.26.1-.39,0-.03-.12-.05-.29-.13-.39.31-.11.73-.1,1.03,0,.18-.08.4-.12.64-.13.16-.02.35.01.51,0Z"/>
      <path class="cls-259" d="M29.83,20.05v.13c0,.13-.18.18-.51.13.37.18.32.53.02.77-.51.41-1.21-.32-1.17-.89-.04.11-.08.11-.13,0-.18.17-.26.09-.13-.13h1.93Z"/>
      <path class="cls-256" d="M27.9,20.05s.12.1.13.13c.08.03.07.08,0,.13-.04.49-.17.79-.39.9-.2.34-.42.22-.51-.13-.14-.4.34-.79.64-1.03-.11-.04-.11-.09,0-.13.04-.11.08-.11.13,0v.13Z"/>
      <path class="cls-220" d="M29.44,19.79c.13,0,.26,0,.39,0,.11.04.11.08,0,.13-.6,0-1.2,0-1.8,0-.11-.04-.11-.08,0-.13.47,0,.94,0,1.41,0Z"/>
      <path class="cls-251" d="M28.03,19.79v.13h-.26c-.1-.03-.1-.11,0-.26-.34-.18-.24-.38.13-.39l.13.51Z"/>
      <path class="cls-17" d="M30.86,19.92c-.34.02-.69,0-1.03,0v-.13c.32,0,.82-.1,1.03.13Z"/>
      <path class="cls-79" d="M30.34,19.28c.11.04.11.08,0,.13-.34.02-.69-.01-1.03,0-.03-.03-.1-.11-.13-.13h1.16Z"/>
      <path class="cls-32" d="M30.99,19.28c-.18.02-.33.11-.64.13v-.13h.64Z"/>
      <path class="cls-134" d="M27.9,28.92c-2.56,2.47-6.48,3.63-9.77,1.67-.06-.03-.09-.08-.13-.13-.05-.06-.08-.18-.13-.26l.25-.06c3.21,1.64,7,1.16,9.59-1.3l.19.08Z"/>
      <path class="cls-130" d="M14.01,24.04c.25.57.57,1.35.64,1.93,2.28,5.28,9.95,6.54,13.5,1.93-.2-.21.02-.42.26-.26.2-.28.42-.4.64-.39-.34.53-.71,1.01-1.03,1.54-.04.04-.09.09-.13.13-.85.49-1.66,1.35-2.59,1.72-2.4.96-5.18.77-7.45-.44-1.16-.62-2.15-1.82-2.99-2.86l-.87-1.51c-.1-.35-.14-.78-.26-1.16-.08-.42-.08-.86-.13-1.29.03.24.37.61.39.64Z"/>
      <path class="cls-116" d="M25.97,15.68c.02.11-.02.26,0,.39l.51-.13c-.05.07-.07.19-.13.26.33.34-.15.56-.39.26-.23.18-.8.23-.51-.26-.25-.27-.09-.52.26-.39.04-.05.22-.08.26-.13Z"/>
      <path class="cls-96" d="M29.06,27.25c-.17.21-.48.28-.64.39-.13-.07-.16-.15-.08-.25,1.2-1.58,1.81-3.05,1.75-5.12l.13-.16c-.14-.12-.19-.2,0-.26.58,1.88-.15,3.81-1.16,5.4Z"/>
      <path class="cls-62" d="M30.09,20.82c.1.39.13.63.13,1.03,0,.09,0,.17,0,.26-.14.28-.19.12-.26-.13-.28-.08-.53-.4-.26-.64-.39-.11-.12-.83.26-.77.12.05.1.16.13.26Z"/>
      <path class="cls-58" d="M28.16,20.18c.19.07.08.34.16.48.21.36,1.14.55.99-.35.12-.05.29-.05.51,0,.01.03.1.08.13.13-.02.03.02.09,0,.13-.03.06-.26.73-.26.77.03.38-.29.4-.51.13-.03.11-.07.11-.13,0-.53.49-1.14-.83-.9-1.29Z"/>
      <path class="cls-71" d="M29.83,20.18s-.01.09,0,.13c.05.53-.16.02-.51,0,0-.01-.16-.02-.13-.13h.64Z"/>
      <path class="cls-99" d="M20.44,15.16c.18-.08.52-.08.51.13.48.19,1.52.18,2.19,0,.18-.05.4-.09.64-.13.35.06.91.27,1.29.39.13.42-.6.4-.9.39-.48,0-.97.06-1.45.17l-.09-.17c-.76.39-2.02-.08-2.83-.39,0,.34-.6.22-.39-.13-.07-.29.05-.35.26-.13.12-.26.63-.35.77-.13Z"/>
      <path class="cls-44" d="M25.07,15.55c.23.07.45.12.64.26-.09.12-.16.26-.26.39.07.22.07.25-.13.13-.23.23-.63.37-.77,0-.28.05-.32-.04-.13-.26-.12-.01-.21-.06-.26-.13.25-.41.57-.21.9-.39Z"/>
      <path class="cls-114" d="M22.5,14.91c.15,0,.23.05.26.13-.29.42-.91.46-1.29.13-.11-.04-.11-.08,0-.13-.06-.05-.02-.09.13-.13.3,0,.6,0,.9,0Z"/>
      <path class="cls-51" d="M20.57,14.91l.13.13c-.02.08-.11.12-.26.13-.09,0-.63.1-.77.13-.49-.12-.13-.33.26-.39.04,0,.09,0,.13,0,.15-.03.35.02.51,0Z"/>
      <path class="cls-203" d="M20.7,15.03s.09,0,.13,0c.19-.08.48-.12.64,0v.13c.1.34-.38.38-.51.13-.02-.01-.49-.13-.51-.13.04-.13.15-.12.26-.13Z"/>
      <path class="cls-162" d="M22.5,14.91c.38.01,1.02-.16.9.26-.03.09-.07.08-.13,0-.27-.01-.44-.06-.51-.13l-.26-.13Z"/>
      <path class="cls-118" d="M23.27,15.16s.09,0,.13,0c.13,0,.27-.02.39,0l-.09.1c-.16.08-.44-.02-.55.02-.54.4-.56-.41.13-.13Z"/>
      <path class="cls-162" d="M21.6,14.91c-.01.06-.07.12-.13.13-.21.02-.43,0-.64,0,.14-.22.53-.12.77-.13Z"/>
      <path class="cls-93" d="M19.92,14.91c-.16.1-.3.17-.26.39-.04,0-.15.1-.26.13.06.36-.36.31-.64.26.05.13-.04.18-.26.13.09.25-.07.29-.26.13-.04.31-.16.3-.26,0-.29-.03-.23-.11,0-.26.46-.26,1.02-.67,1.54-.77.12-.02.27.02.39,0Z"/>
      <path class="cls-231" d="M15.3,18.51c.25-.17.41-.21.51.13.38-.17.75-.05.77.39.42.11.23.39-.13.51-.39.27-.75.1-1.03-.26-.14.49-.81.08-.51-.26.17-.26.36-.48.39-.51Z"/>
      <path class="cls-45" d="M18,15.68v.26c.1.27-.03.39-.39.39.07.21-.32.42-.51.39.08.24-.05.23-.26.13l.06.28c-.27.08-.5.2-.71.37.16.26-.15.43-.39.39-.04.11-.08.11-.13,0,.51-.73.84-1.39,1.67-1.93.15-.1.48-.16.64-.26Z"/>
      <path class="cls-87" d="M14.91,19.02c-.07.35.12.16.51.26.48.24.69.5.64.77-.23.27-.68.14-.9-.13-.39,0-.58-.27-.51-.64.08-.16.22-.21.26-.26Z"/>
      <path class="cls-153" d="M16.07,17.99c.2,0,.35.04.26.26.22.38-.15.52-.51.39-.13-.04-.43.09-.51-.13.13-.21.24-.44.39-.64h.13c.19-.17.26-.14.26.13Z"/>
      <path class="cls-82" d="M14.65,19.28c.26.21.35.37.51.64.11.04.11.08,0,.13-.09.43-.64.15-.77-.13.04-.09.09-.17.13-.26.05-.11.06-.25.13-.39Z"/>
      <path class="cls-12" d="M13.88,21.85c.28,2.1.97,3.93,2.19,5.66.23-.18.39,0,.26.26l.64.51c.45-.09,1.23.67,1.41,1.03.16.09.2.17.13.26-.6.29-1.59-.64-2.09-1.09-.74-.69-1.44-1.55-1.77-2.51-.46-.85-.39-1.16-.64-1.93-.28-.78-.27-1.5-.26-2.31h.13c.11.02.11.07,0,.13Z"/>
      <path class="cls-236" d="M14.65,21.72c.73.32,1.05,1.37.77,2.06.1.31.06.35-.26.26-.03.27-.12.21-.26,0-.1-.02-.19-.05-.21-.1-.3-.78-.53-1.79-.69-2.6.02-.12-.03-.28,0-.39.32-.11.77.47.64.77Z"/>
      <path class="cls-20" d="M14.91,24.04c.27.14.53.71.26.9-.05.39-.22.22-.51-.51l-.21-.11c-.24-.81-.42-1.63-.56-2.46,0-.04,0-.09,0-.13.01-.23.12-.31.13-.39.43.87.62,1.79.9,2.7Z"/>
      <path class="cls-208" d="M15.17,20.05c.19-.06.4.06.26.26.37.12.46.29.26.51.11.04.11.08,0,.13-.26.26-.54.09-.77-.13-.33.06-.58-.33-.51-.64.02-.07-.03-.19,0-.26l.77.13Z"/>
      <path class="cls-140" d="M14.27,20.44c.22.11.57.4.39.64.33.07.59.42.26.64,0,.2-.09.2-.26,0-.17-.29-.44-.51-.64-.77.05-.21.21-.38.26-.51Z"/>
      <path class="cls-108" d="M14.91,20.82c.23.03.34.11.13.26-.04.41-.18.28-.39,0-.18-.27-.5-.23-.39-.64.04-.12.1-.19.13-.26.29.16.36.41.51.64Z"/>
      <path class="cls-55" d="M28.54,18.12s.09,0,.13,0c.05.44-.48.61-.51.64-.27.25-.79.12-.9-.26-.26.18-.94.18-.9-.26.42-.06.87-.1,1.37-.11.05-.27.19-.26.31-.02.06-.27.23-.27.51,0Z"/>
      <path class="cls-48" d="M28.03,17.35c.1.31.35.51.51.77-.16,0-.36-.02-.51,0-.11-.02-.2-.15-.26-.39-.28.2-1.16.17-1.16-.26.37-.05.76-.09,1.16-.13.04-.01.09,0,.13,0h.13Z"/>
      <path class="cls-138" d="M27,16.58s.09.08.13.13c-.21.08-.92.16-1.11.07s-.32-.33-.05-.32c.26.02.27-.12.39-.26.23.1.45.24.64.39Z"/>
      <path class="cls-129" d="M25.97,16.45s-.05.22.08.26c.24.06.76-.01,1.07,0,.21,0,.45-.03.64,0,0,.04,0,.09,0,.13-.17.32-2.48.23-2.58.14-.07-.07-.05-.3,0-.39-.22-.13-.12-.2.13-.26.03-.05.09-.08.13-.13.04.3.45.21.51.26Z"/>
      <path class="cls-100" d="M25.2,16.58c.21.51.36.04.58,0,.08-.01-.01.24.24.27.52.07,1.2-.07,1.75-.01,0,.12.01.27,0,.39-.84.1-1.84.11-2.7,0-.12-.1-.1-.39,0-.51-.18-.18-.1-.26.13-.13Z"/>
      <path class="cls-166" d="M27.77,17.22s0,.09,0,.13c-.51.07-1.04.14-1.54,0-.21.37-.51.37-.9,0,.02.31-.33.13-.26-.13h2.7Z"/>
      <path class="cls-34" d="M27.9,19.15s.01.09,0,.13c-.04.13-.08.2-.13.39-.05.42-1.05.69-1.29.39-.26-.03-.43-.11-.51-.26.03-.16.21-.25.51-.26.01-.24.23-.32.64-.26,0-.39.54-.4.77-.13Z"/>
      <path class="cls-110" d="M28.16,18.76c-.13.15-.17.2-.26.39-.24.12-.55.07-.77.13-.35.09-.52.04-.51-.13-.28-.23-.02-.32.26-.39.05-.11.18-.2.39-.26.28.06.67.11.9.26Z"/>
      <path class="cls-73" d="M29.06,21.47c.12.06.25.27.13.39-.03.25-.09.34-.26.13-.23.36-.63.16-.51-.26-.38.18-.5-.37-.26-.64-.38-.04-.28-.51-.13-.77,0-.04,0-.09,0-.13h.13c-.19.54.46,1.15.9,1.29Z"/>
      <path class="cls-91" d="M27.77,19.92s0,.09,0,.13c-.27.41-1.15.88-1.54.51-1.59.38-3.49.35-5.17.32-.25,0-.5-.02-.74-.06-.09.28-.42.27-.51,0-.71.09-1.57.09-2.19-.26-.17.31-.54.07-.39-.26.07-.49.94-.35,1.29-.13,2.04.21,4.07.21,6.11,0l.19.14c.34-.31,1.24-.42,1.67-.26.44-.09,1.09-.01,1.29-.39-.02.08.02.18,0,.26Z"/>
      <path class="cls-216" d="M27.77,20.05c-.15.59-.27.63-.64,1.03-.25.16-.56.25-.77,0-.15-.02-.23-.11-.26-.26-.22-.06-.18-.14.13-.26.4-.06,1.1-.44,1.54-.51Z"/>
      <path class="cls-168" d="M27.64,21.21c.26-.2.28-.2.26.13.21.35-.15.67-.51.51-.29.24-.82.3-.9-.13-.12-.44.23-.65.64-.64.16.03.36.08.51.13Z"/>
      <path class="cls-224" d="M28.16,21.08c.08.34,0,.42-.26.26-.11,0-.19-.11-.26-.13.11-.3.05-.76.39-.9.05.29,0,.42.13.77Z"/>
      <path class="cls-230" d="M18.51,29.57c1.92.9,3.49.83,5.53.51.11-.02.19.03.25.14,1.23-.4,2.34-1.05,3.34-1.93-.13-.27.27-.53.51-.39-.3.89-1.75,1.87-2.57,2.25-3.68,1.71-7.51.65-10.03-2.44-.39-.48-.85-1.09-.9-1.73.78,1.45,2.21,3.17,3.86,3.6Z"/>
      <path class="cls-54" d="M30.21,22.11c0,1.51-.31,3.28-1.11,4.61-.24.4-.55.55-.69.92-.03.02-.15.17-.26.26-.16.13-.32.23-.51.39-.15.13-.24.13-.26,0-.19.05-.19-.04,0-.26l.02-.23c1.63-1.34,2.33-3.25,2.56-5.3-.26-.03-.25-.16,0-.26-.07-.12-.07-.21,0-.26l.26.13Z"/>
      <path class="cls-133" d="M29.7,21.34c0,.09.22.28.26.64,0,.08,0,.17,0,.26-.35.12-.43-.06-.51-.39-.16.17-.28-.21-.26-.39.03,0,.41-.13.51-.13Z"/>
      <path class="cls-84" d="M29.44,21.85c.51.63.07,2.01-.26,2.7-.09.44-.63,1.96-1.16,1.67-.13-.08-.13-.21,0-.39-.1-.5.38-1.38.77-1.67-.04-.77.08-1.54.39-2.31,0-.09-.14-.25-.13-.39.03.01.08,0,.13,0,.09.1.17.31.26.39Z"/>
      <path class="cls-126" d="M19.41,15.42c.06.18.26.1.39.13.81.36,1.82.59,2.72.52l.11.12c.11.04.09.3,0,.39-.46.4-3.71-.59-3.82-.76-.03-.04-.03-.09-.04-.14.25-.11.36-.17.64-.26Z"/>
      <path class="cls-186" d="M23.27,15.16c-.41.02-.62.09-.13.13-.02,0-.11.26-.25.32-.33.15-1.49.05-1.84-.07-.15-.05-.08-.25-.09-.25.18.05.39-.12.51-.13.44-.05.87-.07,1.29-.13.16-.02.44-.05.51.13Z"/>
      <path class="cls-262" d="M22.63,15.93c.35.05.32.13,0,.26-.64.26-1.65-.11-2.32-.32-.2-.06-.43-.08-.51-.32,1.16.21,1.61.35,2.83.39Z"/>
      <path class="cls-31" d="M24.17,15.93c.16.02.15.03.26.13l-.12.18c-.45-.17-.97-.19-1.55-.05.11.02.11.07,0,.13.11.04.11.09,0,.13.11.04.11.08,0,.13-.03.09-.07.08-.13,0v-.64c.49.01,1.09-.06,1.54,0Z"/>
      <path class="cls-29" d="M24.43,16.06c.13.13.08.15.13.26.11.04.11.09,0,.13.08.24.04.29-.13.13.08.34-.01.36-.26.13-.21.31-.39.24-.39-.13-.11-.04-.11-.08,0-.13-.22-.17-.57-.26-1.03-.26.44-.29,1.14-.06,1.67-.13Z"/>
      <path class="cls-194" d="M25.33,16.32c-.05.08-.09.17-.13.26-.02.04-.12.08-.13.13-.04.11-.08.11-.13,0-.02.08-.03.14-.13.13-.19.15-.31-.19-.26-.39-.02-.04.01-.09,0-.13h.77Z"/>
      <path class="cls-185" d="M18.77,15.68c.28.26.73.17,1.06.29,1.19.43,1.46.53,2.8.61.04,0,.09,0,.13,0,.09-.1.18-.1.26,0,.11.04.11.08,0,.13-.03.11-.07.11-.13,0-.04.11-.09.11-.13,0-.53.28-1.55.41-1.93,0-.78-.19-1.55-.43-2.3-.71l-.02-.19c.09-.04.17-.09.26-.13Z"/>
      <path class="cls-146" d="M18.51,15.81l2.31.9-.12.14-1.55-.4c-.37,0-1.27-.12-.9-.51.06-.11.18-.09.26-.13Z"/>
      <path class="cls-78" d="M18.25,15.93s.09.19.2.24c.23.1.47.18.7.27.27.02.44.1.51.26-.03.09-.05.16-.07.15-.59-.06-1.32-.31-1.86-.54-.04.11-.08.11-.13,0,.09-.06.15-.33.39-.39.08.02.2-.02.26,0Z"/>
      <path class="cls-105" d="M17.48,19.15c.29.11.5.24.64.39.31.18.21.33-.13.26-.23.35-1.04.3-1.16-.13-.23.24-.37.2-.39-.13-.27-.35.02-.21.08-.3s.04-.21.04-.22c.48-.15.78-.11.9.13Z"/>
      <path class="cls-234" d="M16.97,18.38c.34.1.47.23.39.39-.06.19-.31.28-.77.26-.24-.07-.56-.32-.77-.39.15-.03.47-.38.51-.39.11-.3.62-.19.64.13Z"/>
      <path class="cls-157" d="M16.45,19.54c.11.03.24.1.39.13.35.13.23.41-.13.39-.08.32-.44.21-.64,0-.23-.25-.63-.38-.64-.77.35.09.68.18,1.03.26Z"/>
      <path class="cls-25" d="M22.63,17.86c.1.03.08.18,0,.26-.06.07-.13.13-.2.13-1.13.03-2.26-.16-3.37-.36-.93-.28-1.79-.42-2.6-.42.04.12,0,.16-.13.13-.13.04-.17,0-.13-.13.24-.25.36-.4.64-.64,1.89.51,3.82.85,5.79,1.03Z"/>
      <path class="cls-245" d="M17.1,16.71c.14-.15.24-.06.26.13l.32-.08c1.6.48,3.24.74,4.92.8l.16.18c.11.03.11.07,0,.13-.04.11-.08.11-.13,0-1.51.15-2.91-.29-4.34-.61-.49-.11-1.01.04-1.45-.42.09-.08.21-.09.26-.13Z"/>
      <path class="cls-9" d="M17.61,16.32h.13c.34.09.51.22.51.39l-.09.12c-.29-.09-.56-.09-.81,0-.11,0-.23,0-.26-.13.21-.17.28-.22.51-.39Z"/>
      <path class="cls-266" d="M16.32,17.61c.17-.08.5.07.39.26.13.35-.43.29-.64.13-.04-.03-.21-.01-.26-.13.05-.21.28-.27.39-.39.04.04.08.1.13.13Z"/>
      <path class="cls-164" d="M16.07,20.05c.35.05.44.18.26.39-.2.3-.71.2-.9-.13-.02-.03-.17-.11-.26-.26-.02-.03.02-.1,0-.13.3.05.59.1.9.13Z"/>
      <path class="cls-217" d="M16.71,17.86c.12-.22.32-.11.26.13.34.13.35.27,0,.39-.17-.02-.59-.14-.64-.13-.15-.01-.21-.22-.26-.26l.64-.13Z"/>
      <path class="cls-69" d="M18.12,28.41c.25.14.3.21.14.22,1.14.35,2.25.7,3.33,1.06.16-.19.62-.2.77,0,1.09-.34,2.19-.68,3.28-1.01l.19.11c.41-.31.85-.58,1.3-.84.09-.05.17-.02.24.06v.26c-.03.25-.54.7-.77.51-2.31,1.74-5.78,2.17-8.23.51-.68-.29-.92-.52-1.41-1.03-.23-.15-.44-.32-.64-.51-.1-.09-.16-.15-.26-.26-.24-.31-.37-.61-.39-.9h.2c.74.64,1.49,1.24,2.25,1.8Z"/>
      <path class="cls-119" d="M26.61,28.8c.06.09.11.16.09.18-.49.56-1.7,1.03-2.41,1.24-1.53.54-4.53.48-5.79-.64-.05-.04-.08-.19-.13-.26,3.01,1.29,5.4,1.02,8.23-.51Z"/>
      <path class="cls-28" d="M14.65,24.42c.34.68.71,1.36,1.1,2.04l-.07.15c.14.25.31.62.39.9-1.42-1.63-2.2-3.42-2.19-5.66.35.83.51,1.72.77,2.57Z"/>
      <path class="cls-28" d="M16.97,28.28c-.46.03-.56-.44-.64-.51.36,0,.46.32.64.51Z"/>
      <path class="cls-182" d="M15.17,24.04c.4-.1.68.67.39.9l.34.12c.57.82,1.23,1.55,1.98,2.19.82.44,1.64.87,2.44,1.29.1-.09.19,0,.26.26.15.06.25.25.13.39-.48.19-1.48-.13-1.8-.51-.57-.24-1.1-.58-1.62-.92-.1-.06-.13-.1-.05-.24-.79-.63-1.53-1.37-1.93-2.31-.24.09-.33-.12-.13-.26.02-.33-.17-.6-.26-.9.08-.02.21.02.26,0Z"/>
      <path class="cls-195" d="M14.91,21.72c.28-.34.71.2.77.51.21.11.37.23.13.39.08.34.17.68.26,1.03.38.09.25.53-.13.51-.29.25-.67-.05-.51-.39-.23-.34-.16-.88-.29-1.2-.02-.05-.44-.78-.49-.86.08.01.19-.02.26,0Z"/>
      <path class="cls-60" d="M15.94,24.17c.33.05.46.64.13.77-.11.29-.28.29-.51,0-.16-.29-.21-.62-.39-.9.03-.02.12-.25.26-.26.06.09.4.28.51.39Z"/>
      <path class="cls-141" d="M14.65,24.42c.19.1.18.38.28.49.06.07.22,0,.23.02.01.02.04.14.13.26.39.94,1.15,1.68,1.93,2.31l1.67,1.16c-.19.19-.73.02-.77-.26-1.01-.42-1.65-1.09-2.44-1.8-.51-.91-.71-1.16-1.03-2.19Z"/>
      <path class="cls-52" d="M16.58,20.69c.18-.17.25-.1.13.13.29.01.61.24.39.51-.17.38-.76.11-1.03-.13-.22.14-.44.01-.39-.26v-.13c-.02-.36.7-.3.9-.13Z"/>
      <path class="cls-191" d="M15.68,20.95c.18.07.25.12.39.26.23.01.33.11.13.26-.15.32-.45.28-.9-.13-.28.2-.42.03-.26-.26-.05-.07-.08-.18-.13-.26.3-.04.5.02.77.13Z"/>
      <path class="cls-149" d="M16.32,20.44c.02-.11.07-.11.13,0,.34-.03.36,0,.13.26l-.9.13c-.16-.14-.18-.37-.26-.51.31.04.58.12.9.13Z"/>
      <path class="cls-74" d="M15.04,21.08c.09.13.22.21.26.26.45.17.96.47.51.9-.03.11-.08.11-.13,0-.18-.05-.51-.44-.77-.51-.08-.17-.17-.51-.26-.64h.39Z"/>
      <path class="cls-184" d="M24.94,18.12c.08-.35.23-.31.39,0,.29-.08.81-.07,1.03.13.23.18.61.19.9.26.09.42-.24.19-.39.26-.47.25-2.38.8-2.31,0-.18.18-.3.13-.26-.13-.11-.04-.11-.08,0-.13.06-.05.14-.09.26-.13-.33-.03-.33-.11,0-.26.14-.33.24-.33.39,0Z"/>
      <path class="cls-11" d="M28.03,18.12c-.71.11-.8.17-1.67.13-.41-.02-.72-.1-1.03-.13-.11-.04-.11-.08,0-.13.15-.07.33-.07.51,0l.23-.25c.62.16,1.19.16,1.7,0,.17.1.26.16.26.39Z"/>
      <path class="cls-95" d="M26.23,17.35c.15.03.28.07.39.13.41.1.86.08,1.16.26.02.45.08.36-.32.39-.54.04-1.05-.13-1.61-.13-.48,0-.58-.18-.51-.64.29.03.61,0,.9,0Z"/>
      <path class="cls-223" d="M27.77,17.35c-.4.11-.7.19-1.16.13-.12-.03-.3.04-.39-.13.51.01,1.03,0,1.54,0Z"/>
      <path class="cls-223" d="M25.07,17.22c.05.17.13.12.26.13.34.17.21.18.13.51l.39.13c-.17,0-.34,0-.51,0-.21-.05-.34-.27-.39-.64-.08-.23-.08-.44,0-.64h.13c-.02.08-.02.44,0,.51Z"/>
      <path class="cls-35" d="M26.61,19.15c.14,0,.36.11.51.13-.19.05-.45.19-.64.26-1.41.3-2.84.5-4.28.52-.89.01-3.27.02-3.97-.33-.05-.03-.08-.11-.1-.2-.27-.06-.52-.1-.64-.39l.14-.15c1.39.25,2.79.41,4.2.49,1.5-.08,2.94-.26,4.44-.49.16-.02.27,0,.36.15Z"/>
      <path class="cls-159" d="M26.48,19.54c-.15.05-.36.21-.51.26,0,.3-.75.38-.9.13-.4.28-1.2.49-1.61.26,0,.08-.02.14-.04.14-.68.09-2.01.06-2.71,0-.03,0-.06-.06-.08-.13,0,.05-.02.1-.04.12-.08.07-1.87-.16-2.08-.25-.19.1-.62.03-.51-.26l.13-.26c1.35.32,3.43.46,4.82.38,1.18-.07,2.35-.44,3.54-.38Z"/>
      <path class="cls-66" d="M26.48,20.05c-.64.13-1.04.17-1.67.26-.5-.11-.09-.27.26-.39.33-.05.49,0,.9-.13.22-.02.45.02.51.26Z"/>
      <path class="cls-152" d="M17.35,18.76l.1-.16c1.85.41,3.69.57,5.52.47l.04-.18.02-.18,1.52.05c.17.05.25.25.58.27.53.03,1.17-.35,1.74-.27-.05.02-.18.31-.26.39-1.47.08-3.25.53-4.69.53-1.17,0-3.24-.32-4.44-.53-.3-.05-.56-.03-.9-.13.16-.14.57-.25.77-.26Z"/>
      <path class="cls-254" d="M28.93,21.98c.07,0,.13.02.13.04.06.28-.37,2.15-.65,2.27-.03.38-.34.78-.64.39-.18.17-.25.1-.13-.13-.24-.17-.31-.5,0-.64-.3-.1.03-.4.26-.39.17-.28.25-.58.26-.9-.11-.04-.11-.08,0-.13-.15-.06-.23-.15-.26-.26-.16-.32.25-.47.51-.51.06.09.38.24.51.26Z"/>
      <path class="cls-113" d="M28.8,24.17c-.19.47-.32.52-.39.13.3-.44.08-.98.15-1.32.04-.2.25-.38.33-.58.06-.14,0-.33.03-.41.01-.03.2-.08.26-.13.09.96-.11,1.53-.39,2.31Z"/>
      <path class="cls-188" d="M28.41,21.72c-.06.36-.27.36-.51.51.11.17-.36.38-.51.26-.22.09-.39.09-.51,0-.26-.37.14-.66.51-.64.17-.18.32-.28.51-.51.08-.09.17-.18.26-.26.03.09.24.61.26.64Z"/>
      <path class="cls-137" d="M25.07,19.92c-.16.1-.3.17-.26.39-2.7.36-3.72.2-6.3-.13-.11-.04-.11-.08,0-.13.4.05,1.69.13,2.12.13h2.83c.34,0,1.2-.19,1.61-.26Z"/>
      <path class="cls-255" d="M20.31,20.82c1.27.02,2.54.04,3.81.06l.04.2c0,.14-.18.22-.51.26l-.26.25c-1.35.11-2.69.03-4.03-.21l-.22-.29c.01-.23.23-.32.64-.26.15-.03.35.02.51,0Z"/>
      <path class="cls-76" d="M26.23,20.56l-.13.26c-.37.3-1.5.57-1.93.26-1.2-.45-2.73.24-3.86-.26,1.96-.2,3.95.01,5.92-.26Z"/>
      <path class="cls-143" d="M19.8,20.82c-.17.03-.41.27-.64.26-.1.3-.42.15-.64,0-.27.08-.8.16-.77-.26-.29.09-.34-.05-.13-.26.75.03,1.48.02,2.19.26Z"/>
      <path class="cls-18" d="M18,19.79c.08.01.34.23.51.26v.13c-.36-.05-.92.1-1.29.13-.04.11-.09.11-.13,0-.3,0-.43-.08-.39-.26l.13-.39c.4.08.79.07,1.16.13Z"/>
      <path class="cls-86" d="M17.1,20.31s.09,0,.13,0c.07.16.3.18.39.26.05.04.08.19.13.26.16.62-.68.22-1.03,0-.05-.06-.11-.1-.13-.13-.05-.07-.08-.18-.13-.26.01-.31.4-.26.64-.13Z"/>
      <path class="cls-7" d="M26.1,20.82c.26.01.29-.08.26.26.03.37-.15.41-.39.13-.13.28-1.12.55-1.29.26-.25.22-.89.2-1.03-.13.12-.2.31-.22.51-.26.46-.08,1.53-.28,1.93-.26Z"/>
      <path class="cls-150" d="M27.13,21.08c-.21.23-.43.42-.64.64.1.33-.01.36-.26.13-.15-.03-.23-.11-.26-.26-.37,0-.35-.3,0-.39.15-.03.29-.11.39-.13.07-.01.16-.11.32-.11s.3.08.45.11Z"/>
      <path class="cls-68" d="M27.38,21.85c-.17.18-.36.44-.51.64-.24.32-1.06.49-1.41.26-.34-.11-.21-.37.39-.77-.05-.27.24-.33.39-.13.08-.01.18-.12.26-.13.12-.02.72.08.9.13Z"/>
      <path class="cls-210" d="M27.64,28.28c-.13.1-.25.35-.45.51-.82.66-1.8,1.33-2.89,1.42.49-.17,1.44-.71,1.89-1.01.18-.12.34-.19.43-.41.23-.13.57-.46.77-.51.07-.02.18.01.26,0Z"/>
      <path class="cls-207" d="M29.96,22.49c.05,2.1-.9,4.23-2.57,5.53-.68.52-.83.51-1.54.77-.12-.19.05-.36.26-.39v-.11c1.48-1.06,2.55-2.19,3.34-3.88-.06-.26.18-1.82.31-1.88.06-.03.13-.04.21-.05Z"/>
      <path class="cls-64" d="M29.44,21.85c.12.1.43.13.51.39,0,.08,0,.17,0,.26-.27.61-.31,1.27-.51,1.93-.09.18-.17.22-.26.13.28-.91.3-1.75.26-2.7Z"/>
      <path class="cls-244" d="M26.1,28.41c-.1.2-.22.24-.26,0,.08-.28.34-.54.77-.77,0-.39.5-.83.9-.77l.51-.51c-.11-.04-.11-.08,0-.13.69-.32.71-1.18,1.16-1.67.04-.05.19-.08.26-.13-.34,1.12-1.1,2.32-2,3.08-.39.33-1.06.62-1.35.9Z"/>
      <path class="cls-238" d="M28.03,26.22s0,.09,0,.13l-.51.51c-.29.26-.61.51-.9.77-.76.66-1.97,1.12-2.97,1.27-.03,0-.08-.04-.12-.11-.11-.04-.11-.08,0-.13l.3-.26c.9-.24,1.75-.63,2.53-1.16-.05-.11,0-.15.13-.13l.51-.39c-.18-.18-.1-.25.13-.13.3-.55.6-.81.9-.77,0,.13,0,.26,0,.39Z"/>
      <path class="cls-81" d="M28.03,25.84c-.18.22-.66.7-.9.77-.27-.19.05-.47.26-.64-.28-.2-.19-.5.26-.9-.24-.14-.11-.39.13-.39.03-.04.22-.05.29-.13.08-.08.08-.23.17-.26.06-.02.13.02.18,0,.02,0,.21.13.39-.13-.24.69-.24,1.02-.77,1.67Z"/>
      <path class="cls-112" d="M22.75,16.19h1.54c.04.14-.45.25-.51.26-.36-.05-.7-.09-1.03-.13,0-.04,0-.09,0-.13Z"/>
      <path class="cls-5" d="M23.78,16.45v.13c.2.21.12.29-.13.13-.22-.04-.44-.09-.64-.13-.09,0-.17,0-.26,0v-.13c.29-.12.71-.09,1.03,0Z"/>
      <path class="cls-265" d="M23.78,16.45c-.33.04-.69-.03-1.03,0,0-.04,0-.09,0-.13.29.05.87-.13,1.03.13Z"/>
      <path class="cls-40" d="M24.17,16.71c.24.31,0,.7-.39.64.24.36-.04.45-.39.39.14.04.14.12,0,.26.23.17.13.22-.13.26-.37.18-.77.07-.51-.39,0-.05-.01-.1,0-.13-.29-.18.11-.57.39-.51-.15-.22-.02-.39.39-.51.03-.06.08-.05.13,0,.08-.02.15-.04.13-.13l.39.13Z"/>
      <path class="cls-201" d="M24.81,16.84c.07.12.12.3.13.51.23.4.23.66,0,.77-.13-.01-.26.02-.39,0-.13.21-.17.16-.13-.13-.13.17-.28.19-.39,0-.11-.04-.11-.08,0-.13-.25-.24-.21-.31.13-.26-.04-.3.05-.64.26-1.03.04-.03.08-.1.13-.13.11.27.23.33.26.39Z"/>
      <path class="cls-125" d="M24.17,17.61c-.26.27-.67.11-.39-.26.14-.19.27-.5.39-.64.03-.04.18-.08.26-.13.28.61.02.66-.26,1.03Z"/>
      <path class="cls-101" d="M24.94,17.35c-.14-.27-.1-.45-.13-.51l.13-.13v.64Z"/>
      <path class="cls-30" d="M19.67,16.71l.15-.08c1.02.38,2,.41,2.94.08.04,0,.09,0,.13,0,.36.15.26.4-.13.39.16.12.06.35-.09.43-.39.21-2.84-.19-3.31-.39-.04-.02-.06-.08-.07-.17-.34,0-.64-.08-.9-.26-.03.11-.07.11-.13,0l-.51-.39,1.93.39Z"/>
      <path class="cls-252" d="M20.83,16.71c.85.11,1.13.05,1.93,0-.53.79-2.3.27-3.09,0-.17-.06-.35-.19-.51-.26.59-.02,1.07.18,1.67.26Z"/>
      <path class="cls-214" d="M23.53,16.71c.04.32-.28.39-.39.51-.27.25-.38.26-.39-.13.08-.11.1-.26.13-.39.04,0,.09,0,.13,0,.11-.12.37-.09.51,0Z"/>
      <path class="cls-155" d="M23.65,16.71s-.08,0-.13,0c-.17.02-.35-.02-.51,0v-.13c.21,0,.53-.08.64.13Z"/>
      <path class="cls-117" d="M22.75,18.76c.19-.28.3-.21.26.13.18.12.45.17.51.38-.91-.05-1.87.06-2.77,0-1.02-.07-2.49-.53-3.4-.52-.12-.13-.31-.21-.39-.39l.24-.14c1.87.44,3.72.62,5.55.53Z"/>
      <path class="cls-103" d="M16.71,20.05c.14.02.3.15.39.26-.19.01-.41.12-.64.13-.04,0-.09,0-.13,0-.09-.12-.16-.28-.26-.39.21.02.45-.03.64,0Z"/>
      <path class="cls-65" d="M22.63,18.38c.11.04.11.08,0,.13,0,.08,0,.16-.03.19-.35.35-5.4-.27-5.55-.51-.04-.06-.06-.13-.08-.2-.08-.03-.17-.09-.26-.13-.07-.03-.27-.18-.39-.26.04-.05.09-.08.13-.13l.33-.08c1.93.47,3.88.8,5.84.98Z"/>
      <path class="cls-111" d="M22.63,18.12c.21.18.21.27,0,.26-2.15-.02-4.11-.36-6.17-.9.09-.12.1-.26.31-.25,1.94.39,3.87,1,5.86.89Z"/>
      <path class="cls-209" d="M22.75,17.86c-.08.54.1.36.51.39.39-.06.77-.14,1.16-.26.04,0,.1.12.13.13-.02.08.02.2,0,.26-.7.15-1.34.15-1.93,0-.02-.06,0-.18,0-.26v-.26h.13Z"/>
      <path class="cls-83" d="M18.25,16.71s.09,0,.13,0c.26.17.56.26.9.26.7.13,2.74.68,3.27.37.12-.07.14-.15.2-.24l.39.13c-.06.07-.37.48-.39.51-.69-.04-1.42-.04-2.11-.14-1.08-.17-2.19-.66-3.29-.76.07-.32.6-.16.9-.13Z"/>
      <path class="cls-193" d="M22.63,18.51c.42-.26.74.33.13.26-.2.29-.52.27-.83.26-1.59-.06-3.35-.48-4.96-.65-.03-.08.02-.28,0-.39.79.25,3.05.58,3.92.64.54.04,1.22.07,1.73-.13Z"/>
      <path class="cls-260" d="M25.84,28.41c.08-.01.17,0,.26,0-.02.02-.03.35-.26.39-1.25.46-2.09.85-3.47.9-.18-.2.34-.35.51-.26.06-.22.18-.47.39-.26.6-.33,1.79-.78,2.47-.91.02,0,.06.06.1.14Z"/>
      <path class="cls-179" d="M18.9,28.67c.56.2,1.23.32,1.8.51l.09-.11c.2.18.43.28.68.37.02-.11.07-.11.13,0,.34.04.33.16,0,.26-1.27-.08-2.04-.49-3.19-.86-.32-.1-.33,0-.28-.42.25.1.52.17.77.26Z"/>
      <path class="cls-196" d="M22.88,29.44c-.17.09-.38.1-.51.26-.25,0-.52.02-.77,0v-.26c.01-.09.03-.16.06-.17.09-.03.93-.16,1.09-.17.04,0,.09.03.14.09.19-.04.19.05,0,.26Z"/>
      <path class="cls-43" d="M18.25,26.87l.15-.11,1.2.58c.29.16.57.09.83-.21.04-.11.08-.11.13,0,.12-.03.16.05.13.26.11.04.11.09,0,.13.01.14,0,.18-.13.13-.07.26-.13.52,0,.77.11.02.11.07,0,.13.06.11.06.19,0,.26-.14-.04-.19-.14-.26-.26-.8-.43-1.62-.85-2.44-1.29-.44-.25-.65-.51-.64-.77.29-.36.83.05,1.03.39Z"/>
      <path class="cls-154" d="M16.07,24.94c.23-.32.4-.26.39.13.17-.19.25-.11.13.13.54.45.76.88.64,1.29.2.29.35.5.64.77-.95-.51-1.78-1.36-2.31-2.31.17.01.35-.02.51,0Z"/>
      <path class="cls-261" d="M20.31,28.54c-.99-.27-1.68-.59-2.44-1.29.63.34,1.78.62,2.24.91.21.13.14.27.2.37Z"/>
      <path class="cls-20" d="M17.22,27.51c-.73-.45-1.87-1.37-1.93-2.31.62.81,1.18,1.6,1.93,2.31Z"/>
      <path class="cls-53" d="M20.95,29.05c.41.04.58.17.51.39-.59-.01-.38-.13-.77-.26-.07-.12-.11-.25-.13-.39-.01-.08,0-.17,0-.26.16.04.29.21.39.51Z"/>
      <path class="cls-4" d="M17.22,22.75c.09-.2.18-.2.26,0l.77.13c.04-.24.14-.23.26,0l.64-.13c-.06-.24.16-.33.64-.26,0-.38.22-.51.51-.26.22.04.34.11.13.26.03.09.04.2-.03.28-.12.15-1.63.67-1.77.37-.3.1-.6.09-.9,0-.34.14-.75.07-1.25-.24-.2.24-.47-.03-.55-.28-.04.11-.08.11-.13,0,0-.07-.15-.26-.13-.39.04.01.09-.01.13,0,.23-.42,1.23.16,1.41.51Z"/>
      <path class="cls-14" d="M16.58,23.78c.23.07.51.34.26.51.29.17.45.3.13.51-.15.17-.32.26-.51.26-.14-.06-.23-.11-.39-.13-.07-.25-.15-.51-.13-.77,0-.03.1-.32.13-.51-.06-.22-.07-.26.13-.13.26-.09.52-.05.39.26Z"/>
      <path class="cls-57" d="M15.94,22.62c.35.19.36.41.26.77.12.03.11.07,0,.13,0,.03-.12.09-.13.13-.08-.25-.32-.5-.37-.74-.03-.17.11-.27.11-.28h.13Z"/>
      <path class="cls-42" d="M17.74,20.82c.3.04.55.22.77.26.11.04.11.08,0,.13-.08.27-.3.32-.64.13-.05.37-.57.17-.77,0-.11-.18-.26-.34-.39-.51.31-.2.48.1.71.12.15.01.3-.12.32-.12Z"/>
      <path class="cls-205" d="M17.1,21.34c.23.06.32.09.13.26,0,.53-.44.38-.77.13-.25.1-.35,0-.26-.26-.06-.06-.08-.21-.13-.26.36-.09.72.11,1.03.13Z"/>
      <path class="cls-38" d="M16.2,21.47c.08.08.18.18.26.26.64.11.9.36.77.77.34.07.33.17,0,.26-.14-.03-1.14-.42-1.41-.51-.02-.37-.31-.62-.51-.9l.9.13Z"/>
      <path class="cls-56" d="M24.55,18.38c-.07.17-.12.11-.26.13-.49.05-.49.09,0,.13.17.03.22.12.26.13.05.6-1.08.04-1.54.13-.07-.04-.25-.11-.26-.13,0-.03.16-.2.11-.24-.06-.05-.21,0-.24-.01-.02-.02.01-.08,0-.13.64,0,1.29,0,1.93,0Z"/>
      <path class="cls-115" d="M25.33,17.99v.13c-.13-.01-.26.01-.39,0v-.77c.06.12.35.37.39.64Z"/>
      <path class="cls-167" d="M24.3,18.51v.13c-.27-.04-.66.09-.9-.06,0-.13.73-.04.9-.06Z"/>
      <path class="cls-16" d="M27.9,22.24c.4-.06.2.09.26.26-.2.31-.57.52-.9.39-.09.26-.71.4-.9.26-.34.05-.69.04-1.03,0-.19.19-1.69-.26-1.71-.35-.02-.11.08-.21.17-.29.05-.11.13-.11.26,0,.03-.11.08-.11.13,0,.28-.07.49-.08.51.26.97.23,1.78.02,2.7-.26.12-.05.43-.2.51-.26Z"/>
      <path class="cls-122" d="M27.64,23.91c-.02.13.2.44,0,.64.04.34-.84,1.03-1.03.64-.61,0-.34-.54.13-.64-.21-.15-.1-.21.13-.26-.04-.14.09-.27.39-.39.1-.22.27-.17.39,0Z"/>
      <path class="cls-80" d="M27.64,24.55l.13.13s-.07.25-.13.39c-.25.57-.59.83-1.03.77-.14.12-.22.12-.26,0-.47-.12-.2-.83.26-.64.03-.02.2-.02.32-.13.16-.14.67-.48.71-.52Z"/>
      <path class="cls-199" d="M28.16,22.49s0,.08,0,.13c.05.23-.01.6-.26.64-.04.11-.08.11-.13,0-.14-.02-.31-.06-.51-.13-.31-.04-.25-.11,0-.26.28-.12.51-.46.9-.39Z"/>
      <path class="cls-211" d="M27.9,23.52c-.06.11-.25.3-.26.39-.13.15-.35,0-.39,0-.26-.23-.22-.26.13-.26.07-.37.2-.5.39-.39h.13c.14-.03.14.06,0,.26Z"/>
      <path class="cls-22" d="M27.9,23.52c0-.08-.01-.18,0-.26.04-.24.14-.44.26-.64.01.08.17.12.11.41-.07.33-.3.37-.37.49Z"/>
      <path class="cls-246" d="M27.38,22.49c-1.16.53-1.45.59-2.7.26.21-.36.57-.37.77,0,.78.03.75-.06,1.41-.26.13-.04.36.03.51,0Z"/>
      <path class="cls-85" d="M19.15,21.08c2.04.32,2.39.35,4.5.26.31-.01.64.15,1.03.13.31.16.18.31-.13.26-.32.2-.73.34-1.12.24l-3.26.11c-.59.02-.93-.14-1.02-.48-.3.16-.68-.03-.64-.39v-.13c.19.03.45-.03.64,0Z"/>
      <path class="cls-49" d="M25.97,21.21v.39c-.13.29-.93.46-1.16.26-.13-.01-.21-.05-.26-.13l.13-.26c.27-.01.94-.2,1.29-.26Z"/>
      <path class="cls-19" d="M25.97,21.59c.26,0,.29-.06.26.26-.19.03-.29.1-.39.13-.26.43-1.16.59-1.67.51-.04-.01-.09.01-.13,0-.11-.01-.15-.06-.13-.13-.57-.47.49-.59.9-.51.29-.08.89-.26,1.16-.26Z"/>
      <path class="cls-106" d="M25.84,21.98c.33.37-.42.33-.39.77-.26-.01-.52,0-.77,0-.36-.09-.49-.25-.51-.26.55-.36,1.09-.37,1.67-.51Z"/>
      <path class="cls-215" d="M26.61,27.64c-.24.22-.5.55-.77.77-.4.07-2.1.62-2.57.77-.27-.07.06-.52.26-.39.26-.12.94-.16,1.31-.3.62-.23,1.2-.54,1.78-.86Z"/>
      <path class="cls-84" d="M28.03,26.35c-.13.5-.37.39-.51.51.18-.2.2-.58.51-.51Z"/>
      <path class="cls-132" d="M22.88,26.48c.47.08.65.25.51.51.27-.07.37.01.49.23.55-.19,1.1-.42,1.63-.7l.2.21h.13c.01.32-.12.62-.39.9-.38.4-.91.65-1.6.76l-.33.27v.13c-.14.07-.2.25-.26.39-.12.04-.26.19-.39.26,0-.08.01-.18,0-.26-.11-.03-.11-.07,0-.13.05-.18.21-.34.39-.39-.08-.18-.1-.41.13-.39-.1-.22-.14-.43-.13-.64-.18-.26-.36-.52-.51-.77-.52-.1-1.04-.14-1.54-.13-.03.12-.21.12-.26,0-.32-.2-.19-.23.13-.26.46-.25,1.34-.24,1.8,0Z"/>
      <path class="cls-257" d="M27.13,26.61s-.09.08-.13.13l-.51.39s-.08.09-.13.13c-.32.22-.62.35-.9.39-.06-.43.01-.68.39-.9l.36-.13c.46-.65.85-.86,1.18-.64-.1.25-.06.33-.26.64Z"/>
      <path class="cls-89" d="M26.36,27.25c-.9.83-1.69,1.04-2.83,1.41.11-.62.62-.41,1.03-.58.26-.11.62-.31.9-.45.32-.16.57-.39.9-.39Z"/>
      <path class="cls-81" d="M27,26.74c-.15.17-.2.4-.51.39.14-.14.19-.41.51-.39Z"/>
      <path class="cls-232" d="M27.38,25.97c-.42.06-.9.72-1.15.83-.15.07-.31-.07-.39-.06-.04,0-.09,0-.13,0-.07-.42.52-.76.9-.9.31-.29.67-.54,1.03-.77-.09.21-.15.64-.26.9Z"/>
      <path class="cls-263" d="M24.04,17.99c.13,0,.26-.01.39,0,.15.4-.78.28-1.16.26.02-.08.13-.2.13-.26.18-.11.45-.09.64,0Z"/>
      <path class="cls-187" d="M23.78,17.35c.1.16.17.3.39.26-.05.07-.08.18-.13.26-.18.12-.67.14-.64-.13.15-.15.23-.17.39-.39Z"/>
      <path class="cls-209" d="M24.04,17.86v.13c-.21,0-.43,0-.64,0,0-.07-.22-.05,0-.26.11.21.44.12.64.13Z"/>
      <path class="cls-9" d="M19.28,16.96c-.32,0-.77.11-.9-.26.31.05.65.21.9.26Z"/>
      <path class="cls-148" d="M22.37,29.05c.15-.14.28-.18.39-.13.2-.11.25-.07.13.13.01.04,0,.08,0,.13-.41.31-.81.24-1.29.26-.04,0-.09,0-.13,0-.15-.16-.35-.23-.51-.39l.21-.28c.27.23,1.02.55,1.1.13l.11.15Z"/>
      <path class="cls-120" d="M18.25,25.84s.1-.07.15-.09c.12-.04,2.04.86,2.29,1.12.12.12.04.25-.13.26h-.13c-.52.55-1.81-.2-2.31-.64-.34.17-.74-.35-.51-.64-.11-.33,0-.36.26-.13.21-.35.43-.27.39.13Z"/>
      <path class="cls-128" d="M22.5,27c.41-.03.66.25.64.64.12.17.21.38.26.64,0,.04-.1.32-.13.39-.19.19-.26.12-.13-.13l-.17-.06c.01-1.79-2.58-1.3-1.84.36l-.18.21c-.19-.18-.26-.29-.39-.51,0-.04,0-.09,0-.13v-.13c.08-.25.13-.5.13-.77,0-.04,0-.09,0-.13.45-.48,1.19-.52,1.8-.39Z"/>
      <path class="cls-88" d="M20.44,27.12c-.12,1.27-1.52.06-2.19-.26-.24-.16-.29-.29-.13-.39.76.22,1.51.64,2.31.64Z"/>
      <path class="cls-232" d="M16.58,25.19c.35-.27,1.02.29,1.03.64.03.02.45.55.51.64.08.11.11.25.13.39-.25-.12-.75-.25-1.03-.39-.24-.36-.53-.86-.64-1.29Z"/>
      <path class="cls-135" d="M21.21,26.74c.11.04.11.08,0,.13,0,.2-.31.4-.51.51,0-.01-.14-.08-.13-.26,0-.04.1-.23.13-.26-.11-.3.04-.36.26-.13.06-.02.18.02.26,0Z"/>
      <path class="cls-226" d="M20.57,28.28c-.11-.16-.11-.38,0-.64.03-.05.09-.09.13-.13.05.27.21.46-.13.77Z"/>
      <path class="cls-235" d="M20.57,28.28s0,.09,0,.13c-.27-.22-.14-.54,0-.77v.64Z"/>
      <path class="cls-75" d="M16.97,24.81c.34-.31,1.14.53.9.9-.06,0-.18.1-.26.13-.29-.18-.67-.43-1.03-.64-.05-.03-.09-.11-.13-.13l.13-.39c.16-.03.26.04.38.13Z"/>
      <path class="cls-145" d="M24.55,21.72c.1-.01.25,0,.26.13-.38.11-.93.08-.9.51-.13.12-.2.04-.13-.13-.98-.08-1.97-.08-2.96,0-.03.28-.35.15-.51,0-.12.03-.3.19-.51.26-.53.15-.78.07-.77-.26-.08-.02-.14-.03-.13-.13-.25-.08-.25-.19,0-.26-.25-.34-.11-.47.26-.26,1.24.46,4.02.29,5.4.13Z"/>
      <path class="cls-171" d="M20.7,22.62c.35.34,0,.67-.39.77-.76.06-1.55.13-2.37.2-.45.01-.77-.09-.97-.33-.25-.04-.45-.07-.64.13-.04.11-.08.11-.13,0-.04-.2-.33-.48-.26-.77.67.18,1.1.39,1.8.51.3.09.6.09.9,0,.28-.05.64-.11.9-.19.29-.09.65-.4.9-.45.03-.27.42-.15.26.13Z"/>
      <path class="cls-67" d="M18.25,22.24c.14-.15.54-.13.77,0,.2.02.52.27.77.26-.18.06-.37.18-.64.26l-.64.13c-.08,0-.17,0-.26,0l-.77-.13c-.08-.01-.18.02-.26,0-.02-.08.03-.21,0-.26.03-.47.71-.52,1.03-.26Z"/>
      <path class="cls-246" d="M20.83,22.24c.11.04.11.08,0,.13.28.24.23.34-.13.26.01-.12-.17-.14-.26-.13l-.13-.26c.13-.04.36.02.51,0Z"/>
      <path class="cls-94" d="M18.64,23.14c-.08.02-.18.15-.45.15-.26,0-.36-.13-.45-.15h.9Z"/>
      <path class="cls-246" d="M18.25,22.88c-.24,0-.63.09-.77-.13.23.03.63-.11.77.13Z"/>
      <path class="cls-246" d="M19.15,22.75c-.28.07-.31.1-.64.13.11-.21.44-.12.64-.13Z"/>
      <path class="cls-98" d="M17.22,24.42c.14-.09.28-.05.26.13.8.07,1.14.33,1.03.77.31.22.11.58-.26.51-.12-.07-.24-.13-.39-.13-.21-.3-.61-.7-.9-.9-.06-.16-.06-.37-.13-.51.15-.24.37-.14.39.13Z"/>
      <path class="cls-160" d="M16.97,23.27c.68.27.96.3,1.7.22.51-.06,1.4-.6,1.64-.09.1.04.09.08,0,.13.13.3.05.37-.26.26,0,.24-.4.39-.51.13-.19-.18-.08-.29.16-.26-.94.31-1.89.35-2.86.13.03.23-.06.23-.26,0-.05-.08-.3-.17-.39-.26,0-.04,0-.09,0-.13h.13c.03-.23.25-.27.64-.13Z"/>
      <path class="cls-242" d="M16.84,23.78c.27-.19.82.15.64.51.03.12-.05.16-.26.13-.13-.06-.25-.11-.39-.13-.03-.07-.24-.49-.26-.51.07-.02.23.02.26,0Z"/>
      <path class="cls-176" d="M17.87,21.34c.4,0,.87.12,1.03.51-.02.07.01.18,0,.26-.23.06-.45.06-.64,0-.36.18-.98-.11-1.03-.51-.05-.08-.08-.18-.13-.26.21.01.52,0,.77,0Z"/>
      <path class="cls-59" d="M18.51,21.21c.25.03.58.36.64.39-.12.05-.22.13-.26.26-.38,0-.74-.28-1.03-.51.11,0,.35-.17.64-.13Z"/>
      <path class="cls-213" d="M18.25,22.11c.11.04.11.08,0,.13-.38.03-.67.18-1.03.26-.05-.09-.6-.58-.77-.77.26.13.67-.13.77-.13.31,0,.8.47,1.03.51Z"/>
      <path class="cls-264" d="M23.78,22.49c.06.56,1.09.58,1.54.64.34.04.68.05,1.03,0,.35-.07.56-.11.9-.26v.26c-.96.53-2.12.34-3.13,0-.36.18-.6.17-.73,0-.36-.03-.4-.14-.13-.39-.21-.47.33-.59.51-.26Z"/>
      <path class="cls-246" d="M23.78,22.24s.08.09.13.13.09.09.13.13c-.07-.02-.17,0-.26,0-.28-.02-.47-.28-.51.26-.36.16-.4.04-.13-.39-.11-.04-.11-.08,0-.13.15-.13.45-.09.64,0Z"/>
      <path class="cls-198" d="M26.36,23.14c-.62.13-.45.09-1.03,0h1.03Z"/>
      <path class="cls-243" d="M26.74,24.55c-.16.23-.33.37-.13.64-.21.18-.27.37-.26.64-.04.32-.55.57-.77.26-.26.24-.49.27-.39-.13-.13-.2.04-.42.51-.64-.28-.32-.11-.5.26-.64.11-.04.24-.08.39-.13-.01-.2.34-.19.39,0Z"/>
      <path class="cls-151" d="M26.87,24.29c-.12.16-.32.21-.39,0-.25-.39.52-.77.77-.39-.17.21-.37.36-.39.39Z"/>
      <path class="cls-177" d="M26.48,24.29h.39c-.05.07-.08.18-.13.26h-.39c-.1-.04-.14-.08-.13-.13-.11-.04-.11-.08,0-.13.04-.34.16-.33.26,0Z"/>
      <path class="cls-169" d="M26.61,25.84c-.25.24-.43.71-.9.9-.77.14-.82.4-1.19.55-.94.4-.76.09-1.13-.3l.09-.31c.71-.2,1.41-.39,2.09-.59.17-.1.57-.21.77-.26.07-.02.18.01.26,0Z"/>
      <path class="cls-198" d="M27.26,23.14c.28-.07.58-.34.51.13-.04.2-.32.29-.39.39-.21-.11-.49-.08-.85.1l-2.62-.1c-.25.05-.39-.17-.51-.39-.11-.04-.11-.09,0-.13.26.1.26-.27.33-.26.24,0,1.13.48,1.67.52.71.06,1.2-.08,1.86-.26Z"/>
      <path class="cls-24" d="M23.91,23.65l.07-.39c.84.14,1.55.33,2.43.24.37-.03,1.38-.6.98.14-.05.07-.07.19-.13.26-.23.05-.61.2-.77.39h-.26c-.29.08-.75.11-1.03,0-.38.24-1.3-.23-1.29-.64Z"/>
      <path class="cls-104" d="M25.71,25.32c-.15.25-.37.4-.51.64-.45.41-1.75.94-2.31.51-.6,0-1.22,0-1.8,0-.36.38-1.59-.09-1.41-.64.22-.19.77-.05,1.03.13.03-.27.29-.25.39,0,.63.18,1.3.17,1.93,0,.09-.23.32-.25.39,0,.74-.06,1.44-.34,2.09-.84l.22.2Z"/>
      <path class="cls-249" d="M19.67,25.84c.42.36.84.64,1.41.64l-.13.26c-.06.02-.22.1-.26.13-.77-.18-1.52-.45-2.24-.79-.12-.06-.17-.22-.21-.24l.26-.51c.34-.1.73.07,1.16.51Z"/>
      <path class="cls-239" d="M25.2,25.97s.23.19.39.13c-.04.02-.09.2-.19.26-.69.39-1.27.34-2,.64-.14-.15-.43-.25-.51-.51.9.01,1.72-.58,2.31-.51Z"/>
      <path class="cls-227" d="M22.75,26.87c.34.29.1.31-.26.13-.44-.14-.87-.04-1.31.07l.02-.2v-.13c.7-.15.89-.28,1.54.13Z"/>
      <path class="cls-173" d="M23.27,27.64c-.04.11-.08.11-.13,0-.12-.21-.44-.54-.64-.64.1,0,.26.01.26-.13.06.04.2-.01.32.13s.15.45.2.64Z"/>
      <path class="cls-10" d="M23.4,28.28c-.22-.14-.17-.49-.26-.64h.13c.07.24.17.28.13.64Z"/>
      <path class="cls-15" d="M23.27,28.67c-.07.18-.21.3-.39.39,0-.03-.1-.08-.13-.13,0-.21.17-.44.39-.39,0,.06.07.11.13.13Z"/>
      <path class="cls-221" d="M23.14,28.54c-.12.14-.22.28-.39.39-.12.07-.25.09-.39.13l-.12-.24c1.51-1.85-2.6-.89-.08.03l.21.21c-.73.21-.78-.1-1.41,0-.6-1.93,1.86-2.73,2.19-.51Z"/>
      <path class="cls-206" d="M21.21,26.87s.08.09.17.08c.47-.04.63-.21,1.12.04-.31.02-.64-.04-.94.03s-.5.43-.86.36c.14-.31.17-.47.51-.51Z"/>
      <path class="cls-19" d="M23.78,22.24c-.18-.03-.44,0-.64,0l-.07.12c-.69.11-1.4.11-2.12,0-.04.11-.08.11-.13,0v-.13c.81-.12,1.42-.14,2.25-.13.22,0,.57-.08.71.13Z"/>
      <path class="cls-156" d="M18.9,22.11s.09.09.13.13c-.04,0-.73,0-.77,0v-.13c.16.03.28-.17.64,0Z"/>
      <path class="cls-183" d="M20.95,22.37c.76.09,1.49.09,2.19,0-.07.18.1.3.13.39.04.12.09.28.13.39.01.04-.02.09,0,.13.06.04.06.09,0,.13-.73.09-1.49.1-2.28.04-.34.22-.61.25-.81.09v-.13c.23-.24.27-.5.39-.77.03-.07.14-.14.13-.26h.13Z"/>
      <path class="cls-94" d="M16.97,23.27l-.64.13c-.08-.72.28-.27.64-.13Z"/>
      <path class="cls-144" d="M17.74,24.55c.24-.07.68-.12.77.13.35-.06.8-.05.64.39.44.33.99.57,1.65.73l-.1.17c-.28-.03-.72-.05-1.03-.13s-.94-.3-1.16-.51c-.53-.54-.11-.39-1.03-.77.08-.19.18-.19.26,0Z"/>
      <path class="cls-72" d="M17.48,24.29c.03-.26.16-.25.26,0,.11.04.11.08,0,.13.11.04.11.08,0,.13-.08,0-.17,0-.26,0-.07-.03-.17-.09-.26-.13.04-.13.15-.12.26-.13Z"/>
      <path class="cls-37" d="M23.4,23.39c.17.07.49.31.39.51-.01.08-.04.16-.09.21-.51.52-2.95.38-3.64-.08-.13-.02-.13-.11,0-.26.03-.02.1-.18.26-.26.1-.05.66-.33.7-.33.25-.04,1.48.03,1.9.03.23,0,.3,0,.48.17Z"/>
      <path class="cls-192" d="M16.84,23.78s-.05-.24.08-.27.5.13.75.14c.73.03,1.41-.06,2.13-.13.03.02-.2.3-.26.38.18.18.13.29-.13.26-.06.17-.39.33-.51.13-.37-.1-.79-.12-1.16,0-.08,0-.17,0-.26,0l-.64-.51Z"/>
      <path class="cls-77" d="M20.05,23.78l.13.06-.13.19c.17.16.09.22-.13.13.11.33,0,.36-.26.13-.03.12-.07.11-.13,0-.2.04-.24,0-.13-.13.05-.08.08-.18.13-.26.15-.06.39-.06.51-.13Z"/>
      <path class="cls-218" d="M23.14,22.24v.13c-.2.48-.52.14-.84.15-.47.02-.91.31-1.35-.15.4-.32.96-.05,1.37-.05.27,0,.52-.09.81-.08Z"/>
      <path class="cls-233" d="M19.67,24.29c1.3.75,3.09,1.01,4.41.1l.48.03c.13-.16.38-.09.39.13.44-.08,1-.13,1.41,0-.01.21-.22.11-.39.13-.22.26-.75.7-1.03.39-1.64,1.25-3.7.81-5.53.28-.14-.04-.22-.15-.26-.28-.15-.06-.29-.27-.64-.39-.26-.23.3-.26.51-.13,0-.22.32-.33.51-.26.04-.01.09.01.13,0Z"/>
      <path class="cls-144" d="M25.97,24.68c-.11.2-.14.46-.26.64-.56.15-1.37.68-1.91.75-.29.04-.39-.11-.41-.11l-.04-.18c.63-.11,1.15-.35,1.58-.72.49-.21.26-.29,1.03-.39Z"/>
      <path class="cls-50" d="M25.2,24.42c.29-.1.76-.13,1.03,0,.09.02.14,0,.13.13-.43,0-1.01.06-1.41,0-.26-.22.03-.3.26-.13Z"/>
      <path class="cls-6" d="M26.23,24.29v.13c-.22-.04-.77-.02-1.03,0-.11-.04-.11-.08,0-.13.31.04.7,0,1.03,0Z"/>
      <path class="cls-6" d="M26.74,23.78c-.34.5-1.14.44-1.65.29-.23-.06-.33.04-.28-.29h1.93Z"/>
      <path class="cls-124" d="M23.91,23.65c.47.36.65.57,1.29.64v.13c-.11,0-.22,0-.26.13-.07,0-.28-.09-.39-.13-.45.1-.62.01-.51-.26-.33.15-.4.07-.26-.26-.09-.09-.34-.4-.39-.51-.02-.04.02-.09,0-.13.18.12.35.25.51.39Z"/>
      <path class="cls-144" d="M24.94,25.07c-.1.7-1.06.6-1.54.9-.13,0-.26,0-.39,0-.63.17-1.3.18-1.93,0-.13,0-.26.01-.39,0-.25-.68-1.62.02-1.54-.9,2.23.84,3.55.97,5.79,0Z"/>
      <path class="cls-144" d="M23.01,25.97c-.58.32-1.35.32-1.93,0,.75.04,1.2.02,1.93,0Z"/>
      <path class="cls-250" d="M22.37,29.05c-.54.2-1.39-.32-1.27-.93.21-1.05,2.08-.72,1.76.33-.02.05-.46.59-.49.61Z"/>
      <path class="cls-97" d="M18.9,24.42c.2-.16.27-.1.13.13-.14.04-.43-.09-.51.13-.2-.06-.55-.11-.77-.13v-.13c.34-.1.81-.11,1.16,0Z"/>
      <path class="cls-47" d="M18.9,24.29c.11.04.11.08,0,.13-.37-.04-.78.02-1.16,0,.01-.04-.02-.1,0-.13.37-.12.78-.1,1.16,0Z"/>
      <path class="cls-175" d="M23.78,23.91c.08.08.17.2.26.26-.05.66-1.32.8-1.92.8-.64,0-2.07-.14-2.19-.8.04-.01.08-.11.13-.13.58-.2.67.1,1.1.12.89.05,1.77.05,2.63-.25Z"/>
      <path class="cls-219" d="M18.9,24.29c-.38.02-.77-.01-1.16,0,.12-.2.95-.23,1.16,0Z"/>
      <path class="cls-8" d="M19.41,24.17c.05,0,.15.05.13.13-.17.07-.35.21-.51.26-.01-.06-.07-.12-.13-.13v-.13c.16,0,.34-.12.51-.13Z"/>
      <path class="cls-139" d="M24.04,24.17s.49.25.51.26c-.51.12-.68.45-1.26.6-.99.26-2.03.23-2.98-.15-.19-.07-.7-.29-.64-.58.09-.03.17-.1.26-.13,1.07.67,3.12.85,4.12,0Z"/>
    </g>
  </g>
</svg>